<svg
   width="200"
   height="200"
   viewBox="0 0 1000.32 1000.32"
   xmlns="http://www.w3.org/2000/svg">
  <path
    d="M 148.63155,999.98029 C 84.51319,996.90986 28.532858,954.39258 8.1622819,893.29331 4.1961635,881.39741 1.8400472,869.868 0.57382323,856.16 c -0.61180897,-6.62336 -0.61180897,-705.37663 0,-712 C 1.8400472,130.45201 4.1961635,118.92261 8.1622819,107.02668 27.079613,50.286269 76.857514,9.2022947 136.06844,1.4598932 146.41183,0.1073942 131.67729,0.16 500.16,0.16 868.64272,0.16 853.90816,0.1073942 864.25155,1.4598932 915.24509,8.1277904 959.75747,39.614986 983.1976,85.6 c 9.23798,18.12317 14.5496,36.91916 16.54858,58.56 0.61182,6.62337 0.61182,705.37664 0,712 -1.26621,13.708 -3.62234,25.23741 -7.58845,37.13331 -15.57322,46.71011 -52.15431,83.2912 -98.86442,98.86442 -11.49481,3.83238 -21.49222,5.91795 -36.33331,7.57955 -2.5511,0.28562 -87.5991,0.38972 -353.28,0.43242 -192.456,0.031 -352.2278,-0.054 -355.04845,-0.18941 z m 71.17429,-125.87127 c 6.0351,-1.68896 11.12373,-4.62505 15.84413,-9.14192 5.20138,-4.97715 8.73353,-10.70505 10.66018,-17.2871 l 0.88985,-3.04 0.16,-252.0087 0.16,-252.00874 65.84392,154.08874 c 36.21416,84.74876 65.84216,154.28918 65.84002,154.53424 -0.004,0.41699 -1.35853,3.76934 -3.08925,7.64393 -0.41507,0.92922 -0.75469,1.76512 -0.75469,1.85757 0,0.0924 -0.27402,0.77216 -0.60893,1.51053 -0.56211,1.23913 -3.93222,9.22441 -5.63107,13.34243 -1.69885,4.11802 -5.06896,12.1033 -5.63107,13.34243 -0.33491,0.73837 -0.60893,1.41808 -0.60893,1.51053 0,0.0924 -0.36,0.9551 -0.8,1.91706 -0.44,0.96192 -0.8,1.82659 -0.8,1.92147 0,0.0949 -0.432,1.11571 -0.96,2.26851 -0.528,1.1528 -0.96,2.17232 -0.96,2.26557 0,0.0933 -0.27309,0.77363 -0.60685,1.512 -0.33376,0.73833 -0.9967,2.27843 -1.47315,3.42243 -0.47645,1.144 -1.13939,2.6841 -1.47315,3.42243 -0.33376,0.73837 -0.60685,1.41875 -0.60685,1.512 0,0.0933 -0.432,1.11277 -0.96,2.26557 -0.528,1.1528 -0.96,2.17366 -0.96,2.26851 0,0.0949 -0.36,0.95955 -0.8,1.92147 -0.44,0.96196 -0.8,1.82461 -0.8,1.91706 0,0.0924 -0.27309,0.77216 -0.60685,1.51053 -0.33376,0.73833 -0.9967,2.27843 -1.47315,3.42243 -0.47645,1.144 -1.13939,2.6841 -1.47315,3.42243 -0.33376,0.73837 -0.60685,1.41875 -0.60685,1.512 0,0.0933 -0.432,1.11277 -0.96,2.26557 -0.528,1.1528 -0.96,2.17232 -0.96,2.26557 0,0.0933 -0.27309,0.77363 -0.60685,1.512 -0.33376,0.73833 -0.9967,2.27843 -1.47315,3.42243 -0.47645,1.144 -1.13939,2.6841 -1.47315,3.42243 -0.33376,0.73837 -0.60685,1.41875 -0.60685,1.512 0,0.0933 -0.432,1.11277 -0.96,2.26557 -0.528,1.1528 -0.96,2.17366 -0.96,2.26851 0,0.0949 -0.36,0.95955 -0.8,1.92147 -0.44,0.96196 -0.8,1.82461 -0.8,1.91706 0,0.0924 -0.27162,0.77216 -0.60355,1.51053 -1.08797,2.41987 -1.84839,4.20384 -2.27722,5.34243 -0.232,0.616 -0.54272,1.2568 -0.69053,1.424 -0.14777,0.1672 -0.2687,0.48726 -0.2687,0.71126 0,0.22397 -0.37491,1.23917 -0.83312,2.256 -0.45821,1.0168 -0.95248,2.13674 -1.09837,2.48874 -0.14585,0.352 -0.47366,1.144 -0.72845,1.76 -0.25475,0.616 -0.84048,1.95194 -1.30163,2.96874 -0.46112,1.01683 -0.83843,1.96441 -0.83843,2.10579 0,0.14134 -0.35939,0.96541 -0.79866,1.83123 -0.43926,0.86582 -0.79926,1.74986 -0.8,1.96451 0,0.21466 -0.26153,0.86266 -0.57955,1.44 -0.31798,0.57735 -0.77248,1.55373 -1.00992,2.16973 -0.23747,0.616 -0.76928,1.88026 -1.18182,2.80947 -0.41251,0.92922 -0.75005,1.76512 -0.75005,1.85757 0,0.0924 -0.27309,0.77216 -0.60685,1.51053 -0.33376,0.73833 -0.99641,2.27843 -1.47254,3.42243 -0.47613,1.144 -1.21104,2.84026 -1.63315,3.76947 -0.42212,0.92922 -0.76746,1.76647 -0.76746,1.86051 0,0.0941 -0.36,0.95808 -0.8,1.92 -0.44,0.96196 -0.8,1.82461 -0.8,1.91706 0,0.0924 -0.27403,0.77216 -0.60894,1.51053 -0.54035,1.1912 -3.63175,8.51139 -5.63467,13.34243 -0.40133,0.968 -1.76981,4.208 -3.04107,7.2 -1.27127,2.992 -2.65427,6.268 -3.07336,7.28 -1.8574,4.48525 -2.41128,5.81379 -4.43605,10.64 -1.18141,2.816 -2.39771,5.696 -2.70289,6.4 -0.30517,0.704 -0.74,1.928 -0.96627,2.72 -0.22628,0.792 -0.53862,1.8575 -0.69408,2.36774 -0.38743,1.27162 -0.35363,7.74119 0.0487,9.31226 2.0016,7.81706 5.37635,13.14592 10.28826,16.24557 3.4931,2.20429 6.67546,3.11971 11.62042,3.34259 4.93066,0.22227 9.58608,-0.81712 13.544,-3.02387 3.14112,-1.75133 6.3033,-4.91568 7.91882,-7.92429 0.18902,-0.352 0.50953,-0.928 0.71225,-1.28 0.59015,-1.02467 1.98493,-4.09622 1.98493,-4.37114 0,-0.13824 0.37731,-1.08329 0.83843,-2.10012 1.33347,-2.94029 1.72157,-3.85274 1.72157,-4.04762 0,-0.10019 0.33802,-0.94243 0.75117,-1.87165 0.41315,-0.92921 1.09053,-2.55347 1.50528,-3.60947 0.41472,-1.056 0.93981,-2.28 1.16685,-2.72 0.227,-0.44 0.41366,-0.90438 0.41472,-1.032 0,-0.12758 0.41427,-1.13558 0.9182,-2.24 0.50391,-1.10438 1.02775,-2.368 1.16407,-2.808 0.13635,-0.44 0.58803,-1.54678 1.00381,-2.45949 0.41574,-0.91273 0.7559,-1.73712 0.7559,-1.832 0,-0.0948 0.432,-1.11571 0.96,-2.26851 0.528,-1.1528 0.96,-2.17366 0.96,-2.26851 0,-0.0949 0.34016,-0.91927 0.7559,-1.832 0.41578,-0.91271 0.86746,-2.01949 1.00381,-2.45949 0.13632,-0.44 0.66016,-1.70362 1.16407,-2.808 0.50393,-1.10442 0.91622,-2.08432 0.91622,-2.17757 0,-0.0933 0.28358,-0.79206 0.63021,-1.55289 0.34659,-0.76087 1.29229,-3.02096 2.10153,-5.02247 0.80925,-2.00147 1.66544,-4.07107 1.90263,-4.59907 0.23721,-0.528 1.31974,-3.12 2.40563,-5.76 1.08589,-2.64 2.16896,-5.232 2.40685,-5.76 0.23785,-0.528 1.10467,-2.616 1.92627,-4.64 0.8216,-2.024 1.76675,-4.2841 2.10035,-5.02243 0.3336,-0.73837 0.60653,-1.41808 0.60653,-1.51053 0,-0.0924 0.34733,-0.92835 0.77181,-1.85757 0.73049,-1.59897 1.08912,-2.46803 2.74393,-6.64947 0.38308,-0.968 0.91543,-2.264 1.18301,-2.88 0.26759,-0.616 0.60608,-1.408 0.75223,-1.76 0.82812,-1.99443 1.32099,-3.15782 1.74902,-4.12835 0.264,-0.59863 0.48,-1.22448 0.48,-1.39085 0,-0.16637 0.20515,-0.72061 0.4559,-1.23165 0.25076,-0.51104 1.34301,-3.08915 2.4272,-5.72915 1.0842,-2.64 2.16285,-5.232 2.397,-5.76 0.90092,-2.03142 3.0399,-7.20144 3.0399,-7.34758 0,-0.0844 0.36,-0.94048 0.8,-1.90244 0.44,-0.96192 0.8,-1.82592 0.8,-1.92 0,-0.094 0.34733,-0.93129 0.77181,-1.86051 0.42451,-0.92921 1.07251,-2.44547 1.44,-3.36947 0.36752,-0.924 0.96886,-2.436 1.33638,-3.36 0.36749,-0.924 1.01549,-2.44026 1.44,-3.36947 0.42448,-0.92922 0.77181,-1.76512 0.77181,-1.85757 0,-0.0925 0.27293,-0.77216 0.60653,-1.51053 0.3336,-0.73833 1.27891,-2.99843 2.10073,-5.02243 0.82183,-2.024 1.75079,-4.256 2.06439,-4.96 0.31357,-0.704 1.26864,-2.97238 2.12237,-5.04086 0.85372,-2.06848 1.65072,-3.65248 1.7711,-3.52 0.12038,0.13248 13.9289,32.35286 30.6856,71.60086 16.7567,39.248 31.04298,72.44 31.7473,73.76 2.3384,4.38256 4.17497,6.84522 7.756,10.4 5.3288,5.28976 10.65574,8.06381 17.89136,9.31712 4.52624,0.784 12.79289,0.48096 16.96252,-0.62186 3.80477,-1.00627 8.93472,-3.41488 11.64087,-5.46556 3.90713,-2.96077 7.83152,-7.95802 10.57792,-13.4697 0.70157,-1.408 14.99101,-34.744 31.7543,-74.08 16.76327,-39.336 30.65757,-71.86835 30.87616,-72.29414 0.39613,-0.77152 0.39885,-0.76992 0.80618,0.48 0.22477,0.68979 0.81997,2.15776 1.32269,3.26214 0.50268,1.10442 0.91398,2.09066 0.91398,2.19165 0,0.10099 0.216,0.67337 0.48,1.272 0.264,0.59859 0.696,1.57811 0.96,2.1767 0.264,0.59863 0.48,1.17619 0.48,1.28349 0,0.10733 0.30477,0.87757 0.67725,1.71165 1.31779,2.95091 1.56275,3.53533 1.56275,3.72835 0,0.10733 0.27062,0.80557 0.60138,1.55165 0.33075,0.74608 0.92172,2.14851 1.31331,3.11651 0.39155,0.968 0.90198,2.192 1.1343,2.72 0.23229,0.528 1.59911,3.84 3.03735,7.36 1.43827,3.52 2.80806,6.832 3.044,7.36 0.23593,0.528 1.1,2.616 1.92012,4.64 0.82016,2.024 1.68599,4.112 1.92407,4.64 0.23808,0.528 1.52029,3.66714 2.84934,6.97584 1.32909,3.3087 2.70442,6.61174 3.05632,7.3401 0.35191,0.72835 0.63981,1.45046 0.63981,1.60467 0,0.15421 0.34016,1.02717 0.7559,1.9399 0.41578,0.91271 0.86506,2.01949 0.99844,2.45949 0.13337,0.44 0.64217,1.664 1.13062,2.72 0.48848,1.056 1.0375,2.352 1.22006,2.88 0.38413,1.11101 2.10954,5.31302 2.75936,6.72 0.24384,0.528 0.7568,1.752 1.13988,2.72 1.65481,4.18144 2.01344,5.0505 2.74393,6.64947 0.42448,0.92922 0.77181,1.75856 0.77181,1.84295 0,0.15686 2.23987,5.55548 3.07888,7.42086 0.25562,0.56829 0.67011,1.61533 0.92112,2.32672 0.25101,0.71139 0.69475,1.83043 0.98614,2.48672 1.18554,2.6703 1.41386,3.21808 1.41386,3.39216 0,0.10019 0.33802,0.94243 0.75117,1.87165 0.41315,0.92921 1.0847,2.55347 1.49232,3.60947 0.40765,1.056 0.8368,2.064 0.95373,2.24 0.11692,0.176 0.47552,1.04 0.79686,1.92 0.32138,0.88 0.92218,2.34678 1.3351,3.25949 0.41296,0.91273 0.75082,1.7423 0.75082,1.84349 0,0.10121 0.28128,0.79443 0.62506,1.54051 0.34377,0.74608 0.931,2.14851 1.30496,3.11651 0.37395,0.968 0.87552,2.192 1.11459,2.72 0.2391,0.528 1.10573,2.616 1.92585,4.64 0.82016,2.024 1.68362,4.112 1.91882,4.64 0.2352,0.528 1.08973,2.5976 1.89898,4.59907 0.80924,2.00151 1.73219,4.23351 2.051,4.96 0.31882,0.72653 0.77434,1.82493 1.01229,2.44093 1.45219,3.75971 5.03738,8.67494 7.82845,10.73267 0.704,0.51904 1.352,1.03069 1.44,1.13706 0.3352,0.40509 3.11584,1.81456 4.88134,2.47424 5.59335,2.09005 11.98231,2.16937 17.51453,0.21747 6.548,-2.31027 12.15501,-8.66579 14.66618,-16.62413 0.70185,-2.22432 0.70339,-9.00896 0.003,-11.21731 -0.50791,-1.60035 -3.168,-8.10611 -4.61607,-11.28947 -0.42272,-0.92922 -0.76854,-1.76647 -0.76854,-1.86051 0,-0.0941 -0.36,-0.95808 -0.8,-1.92 -0.44,-0.96196 -0.8,-1.82461 -0.8,-1.91706 0,-0.0924 -0.2712,-0.77216 -0.60266,-1.51053 -0.33145,-0.73833 -1.35808,-3.14243 -2.2814,-5.34243 -2.88544,-6.87523 -3.55162,-8.45056 -3.99194,-9.44 -0.40166,-0.90256 -3.84016,-9.08282 -5.44762,-12.96 -0.40131,-0.968 -1.76979,-4.208 -3.04105,-7.2 -2.23469,-5.25949 -2.98519,-7.05094 -4.59136,-10.96 -0.41584,-1.012 -1.13584,-2.65878 -1.6,-3.65949 -0.46419,-1.00073 -0.84397,-1.9023 -0.84397,-2.00349 0,-0.10121 -0.27565,-0.79443 -0.61254,-1.54051 -0.3369,-0.74608 -1.20935,-2.79651 -1.93879,-4.55651 -1.30307,-3.14416 -1.50214,-3.60595 -2.85491,-6.62243 -0.37056,-0.82637 -0.67376,-1.57808 -0.67376,-1.67053 0,-0.0924 -0.36,-0.9551 -0.8,-1.91706 -0.44,-0.96192 -0.8,-1.82659 -0.8,-1.92147 0,-0.0948 -0.432,-1.11571 -0.96,-2.26851 -0.528,-1.1528 -0.96,-2.17232 -0.96,-2.26557 0,-0.0933 -0.27309,-0.77363 -0.60685,-1.512 -0.33376,-0.73833 -0.9967,-2.27843 -1.47315,-3.42243 -0.47645,-1.144 -1.13939,-2.6841 -1.47315,-3.42243 -0.33376,-0.73837 -0.60685,-1.42394 -0.60685,-1.52349 0,-0.0996 -0.27994,-0.79149 -0.62208,-1.53757 -0.34214,-0.74608 -1.43872,-3.30051 -2.4368,-5.67651 -0.99808,-2.376 -2.08614,-4.9241 -2.41792,-5.66243 -0.33174,-0.73837 -0.6032,-1.41808 -0.6032,-1.51053 0,-0.0924 -0.36,-0.9551 -0.8,-1.91706 -0.44,-0.96192 -0.8,-1.82592 -0.8,-1.92 0,-0.094 -0.34582,-0.93129 -0.76854,-1.86051 -0.42269,-0.92921 -1.51712,-3.48947 -2.43207,-5.68947 -0.91494,-2.2 -1.93712,-4.6041 -2.27145,-5.34243 -0.33437,-0.73837 -0.60794,-1.41808 -0.60794,-1.51053 0,-0.0924 -0.34582,-0.92835 -0.76854,-1.85757 -0.42269,-0.92921 -1.51712,-3.48947 -2.43207,-5.68947 -0.91494,-2.2 -1.93712,-4.6041 -2.27145,-5.34243 -0.33437,-0.73837 -0.60794,-1.41808 -0.60794,-1.51053 0,-0.0924 -0.36,-0.9551 -0.8,-1.91706 -0.44,-0.96192 -0.8,-1.82592 -0.8,-1.92 0,-0.094 -0.34582,-0.93129 -0.76854,-1.86051 -0.42269,-0.92921 -1.51712,-3.48947 -2.43207,-5.68947 -0.91494,-2.2 -1.91437,-4.576 -2.22093,-5.28 -0.30656,-0.704 -0.75193,-1.784 -0.98972,-2.4 -0.2378,-0.616 -0.69255,-1.59238 -1.01053,-2.16973 -0.31802,-0.57734 -0.57882,-1.22534 -0.57955,-1.44 0,-0.21465 -0.36074,-1.09869 -0.8,-1.96451 -0.43927,-0.86582 -0.79866,-1.68989 -0.79866,-1.83123 0,-0.14138 -0.37491,-1.08896 -0.83312,-2.10579 -0.45821,-1.0168 -0.95248,-2.13674 -1.09837,-2.48874 -0.14585,-0.352 -0.50566,-1.216 -0.79949,-1.92 -0.29385,-0.704 -0.65385,-1.568 -0.8,-1.92 -0.14617,-0.352 -0.50496,-1.216 -0.79734,-1.92 -0.29238,-0.704 -0.80611,-1.8336 -1.14163,-2.51024 -0.33552,-0.67664 -0.61005,-1.3567 -0.61005,-1.51126 0,-0.15456 -0.37731,-1.11293 -0.83843,-2.12976 -1.61018,-3.55044 -1.7952,-4.02477 -1.8312,-4.69444 -0.0198,-0.37088 29.62461,-70.2416 65.8767,-155.26828 l 65.91293,-154.59402 0.16,252.83402 0.16,252.83398 0.88986,3.04 c 3.77868,12.90925 14.16793,23.07142 27.0559,26.46458 2.59232,0.68252 4.02858,0.83907 8.85424,0.96502 5.03645,0.13146 6.18176,0.0635 9.1175,-0.54147 13.0561,-2.69027 24.05869,-13.28339 27.76125,-26.72813 l 0.88125,-3.2 0.0914,-343.04 c 0.0833,-312.81394 0.0463,-343.31464 -0.41926,-346.15688 -0.85744,-5.23441 -2.79853,-10.17689 -5.688,-14.48312 -1.8328,-2.73144 -7.3409,-8.26125 -10.01687,-10.05633 -2.72784,-1.82991 -5.95446,-3.21402 -10.23469,-4.39036 -2.97014,-0.81629 -3.60128,-0.87324 -9.89254,-0.89262 -7.57504,-0.0233 -10.98387,0.49816 -16.78118,2.56721 -8.25799,2.94724 -14.2784,8.97602 -19.00916,19.0356 -0.94576,2.01108 -40.14832,95.62561 -87.11683,208.03231 l -85.39728,204.37577 -0.55693,-1.17577 c -0.3063,-0.64669 -0.56179,-1.28019 -0.56777,-1.40781 -0.006,-0.12758 -0.44285,-1.1752 -0.97085,-2.328 -0.528,-1.1528 -0.96,-2.17232 -0.96,-2.26557 0,-0.0932 -0.27798,-0.77977 -0.61776,-1.52563 -0.61955,-1.36 -2.05462,-4.72886 -5.06438,-11.8888 -0.88781,-2.112 -2.07748,-4.92 -2.64372,-6.24 -0.5662,-1.32 -1.37251,-3.228 -1.7918,-4.24 -0.4193,-1.012 -1.10522,-2.668 -1.52429,-3.68 -0.41911,-1.012 -1.80211,-4.288 -3.07338,-7.28 -1.27126,-2.992 -2.63974,-6.232 -3.04105,-7.2 -2.00292,-4.83104 -5.09434,-12.15123 -5.63469,-13.34243 -0.33491,-0.73837 -0.60893,-1.42394 -0.60893,-1.52349 0,-0.0996 -0.27683,-0.79149 -0.61523,-1.53757 -0.81523,-1.79757 -2.16061,-4.95805 -4.18723,-9.83651 -0.91392,-2.2 -1.93527,-4.6041 -2.2696,-5.34243 -0.33437,-0.73837 -0.60794,-1.42007 -0.60794,-1.51491 0,-0.0949 -0.432,-1.06429 -0.96,-2.15428 -0.528,-1.08998 -0.96,-2.09635 -0.96,-2.23635 0,-0.14 -0.34304,-1.01446 -0.76227,-1.94329 -0.41927,-0.9288 -1.08346,-2.48074 -1.47597,-3.44874 -0.39251,-0.968 -0.98547,-2.3641 -1.3177,-3.10243 -0.33225,-0.73837 -0.60406,-1.41875 -0.60406,-1.512 0,-0.0933 -0.432,-1.11277 -0.96,-2.26557 -0.528,-1.1528 -0.96,-2.16512 -0.96,-2.24957 0,-0.0845 -0.36,-0.89981 -0.8,-1.8119 -0.44,-0.91207 -0.8,-1.77143 -0.8,-1.90967 0,-0.13824 -0.37491,-1.08329 -0.83312,-2.10012 -0.45821,-1.0168 -0.95248,-2.13674 -1.09837,-2.48874 -1.61027,-3.88538 -2.71837,-6.47219 -3.86496,-9.02243 -0.33193,-0.73837 -0.60355,-1.41808 -0.60355,-1.51053 0,-0.0924 -0.36,-0.9551 -0.8,-1.91706 -0.44,-0.96192 -0.8,-1.82659 -0.8,-1.92147 0,-0.0949 -0.432,-1.11571 -0.96,-2.26851 -0.528,-1.1528 -0.96,-2.17232 -0.96,-2.26557 0,-0.0932 -0.27309,-0.77363 -0.60685,-1.512 -0.33376,-0.73833 -0.9967,-2.27843 -1.47315,-3.42243 -0.47645,-1.144 -1.13939,-2.6841 -1.47315,-3.42243 -0.33376,-0.73837 -0.60685,-1.41808 -0.60685,-1.51053 0,-0.0924 -0.3441,-0.92835 -0.76467,-1.85757 -0.42055,-0.92921 -1.09322,-2.48147 -1.49482,-3.44947 -1.12051,-2.7009 -3.89885,-6.80624 -6.01878,-8.89354 -2.37543,-2.33881 -5.01066,-3.92864 -8.43712,-5.09004 -2.49325,-0.84512 -2.94679,-0.89488 -7.92461,-0.86973 -5.04106,0.0256 -5.40618,0.0712 -8.06806,1.00957 -1.53341,0.5406 -3.62852,1.49344 -4.65575,2.11747 -2.22387,1.35091 -5.54419,4.64944 -7.04406,6.99776 -1.19255,1.8672 -4.87213,9.43875 -4.87213,10.02553 0,0.10119 -0.36,0.97104 -0.8,1.93296 -0.44,0.96196 -0.8,1.82461 -0.8,1.91706 0,0.0924 -0.27309,0.77216 -0.60685,1.51053 -0.33376,0.73833 -0.9967,2.27843 -1.47315,3.42243 -0.47645,1.144 -1.13939,2.6841 -1.47315,3.42243 -0.33376,0.73837 -0.60685,1.41875 -0.60685,1.512 0,0.0933 -0.432,1.11277 -0.96,2.26557 -0.528,1.1528 -0.96,2.17366 -0.96,2.26851 0,0.0949 -0.36,0.95955 -0.8,1.92147 -0.44,0.96196 -0.8,1.82461 -0.8,1.91706 0,0.0924 -0.2712,0.77216 -0.60266,1.51053 -0.33145,0.73833 -1.35808,3.14243 -2.2814,5.34243 -0.9233,2.2 -2.07258,4.936 -2.55389,6.08 -0.48131,1.144 -1.56727,3.736 -2.41325,5.76 -0.84595,2.024 -1.6575,3.8168 -1.80346,3.984 -0.14592,0.1672 -0.26534,0.48726 -0.26534,0.71126 0,0.22397 -0.37491,1.23917 -0.83312,2.256 -0.45821,1.0168 -0.95248,2.13674 -1.09837,2.48874 -0.14585,0.352 -0.47366,1.144 -0.72845,1.76 -0.25475,0.616 -0.84048,1.95194 -1.30163,2.96874 -0.46112,1.01683 -0.83843,1.96441 -0.83843,2.10579 0,0.14134 -0.35939,0.96541 -0.79866,1.83123 -0.43926,0.86582 -0.79926,1.74986 -0.8,1.96451 0,0.21466 -0.26153,0.86266 -0.57955,1.44 -0.31798,0.57735 -0.77248,1.55373 -1.00992,2.16973 -0.23747,0.616 -0.76928,1.88026 -1.18182,2.80947 -0.41251,0.92922 -0.75005,1.77146 -0.75005,1.87165 0,0.19488 -0.3881,1.10733 -1.72157,4.04762 -0.46112,1.01683 -0.83843,1.96441 -0.83843,2.10579 0,0.14134 -0.35939,0.96541 -0.79866,1.83123 -0.43926,0.86582 -0.79926,1.74986 -0.8,1.96451 0,0.21466 -0.26153,0.86266 -0.57955,1.44 -0.31798,0.57735 -0.77273,1.55373 -1.01053,2.16973 -0.23779,0.616 -0.68361,1.696 -0.99075,2.4 -0.55699,1.27677 -4.17033,9.87034 -5.61747,13.36 -1.69123,4.07824 -2.39312,5.74781 -4.60771,10.96 -1.27127,2.992 -2.63763,6.232 -3.03639,7.2 -1.63078,3.95882 -5.06105,12.08819 -5.63001,13.34243 -0.33491,0.73837 -0.60893,1.41808 -0.60893,1.51053 0,0.0924 -0.33754,0.92835 -0.75005,1.85757 -0.41254,0.92921 -0.93961,2.19347 -1.17129,2.80947 -0.23168,0.616 -0.50829,1.22294 -0.61472,1.34877 -0.14429,0.16985 -164.44301,-392.1418 -169.96029,-405.82877 -2.98211,-7.39787 -6.11466,-12.50681 -10.36886,-16.9108 -4.59066,-4.75228 -9.47134,-7.60023 -16.06978,-9.37694 -3.11426,-0.83855 -13.55412,-1.20745 -17.39291,-0.61459 -8.6754,1.33981 -15.49606,4.56109 -20.18012,9.53069 -5.03303,5.33988 -8.46666,11.17488 -10.13266,17.21915 L 172.64,155.68 V 500 844.32 l 0.88903,3.2 c 1.83052,6.58883 5.37426,12.38829 10.661,17.4471 5.56886,5.32874 11.889,8.5792 19.30417,9.9281 0.80619,0.14666 4.1298,0.21904 7.3858,0.16083 5.21868,-0.0933 6.27609,-0.20547 8.92584,-0.94701 z m 251.63125,-186.26556 -28.83504,-68.95658 0.79769,-2.00342 c 0.43872,-1.10192 0.99412,-2.43546 1.23418,-2.96346 0.24006,-0.528 1.10282,-2.616 1.91725,-4.64 1.75216,-4.35453 1.78448,-4.43158 2.85571,-6.80874 0.45821,-1.01683 0.83312,-2.03203 0.83312,-2.256 0,-0.224 0.12506,-0.54406 0.27792,-0.71126 0.15286,-0.1672 0.53766,-1.024 0.8551,-1.904 0.31744,-0.88 0.67284,-1.744 0.78976,-1.92 0.11693,-0.176 0.54637,-1.184 0.95431,-2.24 0.40797,-1.056 0.99257,-2.496 1.29917,-3.2 0.30659,-0.704 0.94608,-2.216 1.42108,-3.36 0.47501,-1.144 1.05149,-2.512 1.28106,-3.04 0.2296,-0.528 1.60051,-3.84 3.04646,-7.36 1.44596,-3.52 2.90039,-7.0041 3.23207,-7.74243 0.33168,-0.73837 0.60307,-1.42394 0.60307,-1.52349 0,-0.0996 0.27565,-0.79149 0.61254,-1.53757 0.94029,-2.0823 3.22746,-7.57126 3.22746,-7.74553 0,-0.0852 0.432,-1.09818 0.96,-2.25098 0.528,-1.1528 0.96,-2.17366 0.96,-2.26851 0,-0.0949 0.36,-0.95955 0.8,-1.92147 0.44,-0.96196 0.8,-1.81805 0.8,-1.90244 0,-0.17315 2.29104,-5.6704 3.22746,-7.74409 0.33689,-0.74608 0.61254,-1.43799 0.61254,-1.53757 0,-0.0996 0.27222,-0.78512 0.60496,-1.52349 0.3327,-0.73833 2.29155,-5.44643 4.35293,-10.46243 2.06141,-5.016 4.09318,-9.87994 4.51507,-10.80874 0.42186,-0.92883 0.76704,-1.80668 0.76704,-1.95084 0,-0.14416 0.20218,-0.68023 0.44931,-1.19127 0.61341,-1.26851 1.60167,-3.57555 2.11146,-4.92915 0.232,-0.616 0.54272,-1.2568 0.69053,-1.424 0.14777,-0.1672 0.2687,-0.4991 0.2687,-0.73757 0,-0.23843 0.30438,-1.10963 0.67645,-1.936 0.37203,-0.82633 0.94803,-2.10653 1.28,-2.84486 0.33193,-0.73837 0.60355,-1.42394 0.60355,-1.52349 0,-0.0996 0.30477,-0.86349 0.67725,-1.69757 0.37248,-0.83408 0.88621,-2.02051 1.14163,-2.63651 0.25542,-0.616 0.59866,-1.444 0.76275,-1.84 0.1641,-0.396 0.43267,-1.044 0.5968,-1.44 0.16413,-0.396 0.88413,-2.12269 1.6,-3.83706 0.71587,-1.71436 1.30157,-3.19193 1.30157,-3.28348 0,-0.0915 0.27882,-0.77687 0.61962,-1.52295 0.3408,-0.74608 0.85059,-1.93251 1.13289,-2.63651 1.35811,-3.38698 1.55418,-3.61354 1.90775,-2.20467 0.11532,0.45939 0.50528,1.50339 0.86659,2.32 0.94237,2.12979 1.04496,2.37632 2.68198,6.44467 0.81443,2.024 1.67495,4.112 1.91226,4.64 0.23731,0.528 2.47152,5.928 4.96493,12 2.49337,6.072 4.80806,11.6441 5.14371,12.38243 0.33565,0.73837 0.61027,1.53757 0.61027,1.776 0,0.23847 0.12093,0.57037 0.2687,0.73757 0.14781,0.1672 0.45741,0.808 0.688,1.424 0.67674,1.80765 1.30144,3.27571 1.95325,4.59024 0.33552,0.67664 0.61095,1.39664 0.61203,1.6 0,0.20336 0.18772,0.72976 0.41472,1.16976 0.22704,0.44 0.75213,1.664 1.16685,2.72 0.41475,1.056 1.09213,2.68026 1.50528,3.60947 0.41315,0.92922 0.75117,1.75856 0.75117,1.84295 0,0.17315 2.29104,5.6704 3.22746,7.74409 0.33689,0.74608 0.61254,1.43143 0.61254,1.52295 0,0.17123 2.1695,5.40176 3.1857,7.68054 0.31395,0.704 0.68131,1.64 0.81635,2.08 0.13504,0.44 0.65782,1.70362 1.16173,2.808 0.50393,1.10442 0.91622,2.07776 0.91622,2.16298 0,0.0852 0.5857,1.5576 1.30157,3.27196 0.71587,1.71437 1.42118,3.40506 1.56739,3.75706 0.14618,0.352 0.49648,1.16576 0.7784,1.80835 0.28195,0.64263 0.51264,1.25619 0.51264,1.36349 0,0.10733 0.30477,0.87757 0.67725,1.71165 0.37248,0.83408 0.88621,2.02051 1.14163,2.63651 0.25542,0.616 0.59866,1.444 0.76275,1.84 0.1641,0.396 0.4384,1.044 0.60954,1.44 0.17117,0.396 0.6144,1.512 0.98496,2.48 0.37059,0.968 0.86941,2.192 1.10848,2.72 0.2391,0.528 1.10573,2.616 1.92585,4.64 0.82016,2.024 1.68676,4.112 1.9258,4.64 0.23904,0.528 0.7367,1.74038 1.10588,2.69421 0.36919,0.95382 0.95175,2.34992 1.29456,3.10246 0.34282,0.75251 0.6233,1.4497 0.6233,1.54925 0,0.0996 0.28128,0.79149 0.62506,1.53757 0.34377,0.74608 0.931,2.14851 1.30496,3.11651 0.37395,0.968 0.87552,2.192 1.11459,2.72 0.2391,0.528 1.10573,2.616 1.92585,4.64 0.82016,2.024 1.70746,4.14326 1.97181,4.70944 0.48035,1.0288 0.46282,1.0721 -28.41117,70.16 C 513.68061,725.69126 500.58768,756.8 500.47571,756.8 c -0.112,0 -13.17936,-31.03046 -29.03862,-68.95654 z"
    fill="#29ae60"
  />

  <path
    d="m 203.4942,874.8952 c -7.41517,-1.3489 -13.73531,-4.59936 -19.30417,-9.9281 -5.28674,-5.05881 -8.83048,-10.85827 -10.661,-17.4471 L 172.64,844.32 V 500 155.68 l 0.87996,-3.19249 c 1.666,-6.04427 5.09963,-11.87927 10.13266,-17.21915 4.68406,-4.9696 11.50472,-8.19088 20.18012,-9.53069 3.83879,-0.59286 14.27865,-0.22396 17.39291,0.61459 6.59844,1.77671 11.47912,4.62466 16.06978,9.37694 4.2542,4.40399 7.38675,9.51293 10.36886,16.9108 5.51728,13.68697 169.816,405.99862 169.95965,405.82877 0.10643,-0.12583 0.38304,-0.73277 0.61472,-1.34877 0.23168,-0.616 0.75875,-1.88026 1.17129,-2.80947 0.41251,-0.92922 0.75005,-1.76512 0.75005,-1.85757 0,-0.0924 0.27402,-0.77216 0.60893,-1.51053 0.56896,-1.25424 3.99923,-9.38361 5.63001,-13.34243 0.39876,-0.968 1.76512,-4.208 3.03639,-7.2 2.21459,-5.21219 2.91648,-6.88176 4.60771,-10.96 1.44714,-3.48966 5.06048,-12.08323 5.61747,-13.36 0.30714,-0.704 0.75296,-1.784 0.99075,-2.4 0.2378,-0.616 0.69255,-1.59238 1.01053,-2.16973 0.31802,-0.57734 0.57882,-1.22534 0.57955,-1.44 0,-0.21465 0.36074,-1.09869 0.8,-1.96451 0.43927,-0.86582 0.79866,-1.68989 0.79866,-1.83123 0,-0.14138 0.37731,-1.08896 0.83843,-2.10579 1.33347,-2.94029 1.72157,-3.85274 1.72157,-4.04762 0,-0.10019 0.33754,-0.94243 0.75005,-1.87165 0.41254,-0.92921 0.94435,-2.19347 1.18182,-2.80947 0.23744,-0.616 0.69194,-1.59238 1.00992,-2.16973 0.31802,-0.57734 0.57882,-1.22534 0.57955,-1.44 0,-0.21465 0.36074,-1.09869 0.8,-1.96451 0.43927,-0.86582 0.79866,-1.68989 0.79866,-1.83123 0,-0.14138 0.37731,-1.08896 0.83843,-2.10579 0.46115,-1.0168 1.04688,-2.35274 1.30163,-2.96874 0.25479,-0.616 0.5826,-1.408 0.72845,-1.76 0.14589,-0.352 0.64016,-1.47194 1.09837,-2.48874 0.45821,-1.01683 0.83312,-2.03203 0.83312,-2.256 0,-0.224 0.11942,-0.54406 0.26534,-0.71126 0.14596,-0.1672 0.95751,-1.96 1.80346,-3.984 0.84598,-2.024 1.93194,-4.616 2.41325,-5.76 0.48131,-1.144 1.63059,-3.88 2.55389,-6.08 0.92332,-2.2 1.94995,-4.6041 2.2814,-5.34243 0.33146,-0.73837 0.60266,-1.41808 0.60266,-1.51053 0,-0.0925 0.36,-0.9551 0.8,-1.91706 0.44,-0.96192 0.8,-1.82659 0.8,-1.92147 0,-0.0949 0.432,-1.11571 0.96,-2.26851 0.528,-1.1528 0.96,-2.17232 0.96,-2.26557 0,-0.0933 0.27309,-0.77363 0.60685,-1.512 0.33376,-0.73833 0.9967,-2.27843 1.47315,-3.42243 0.47645,-1.144 1.13939,-2.6841 1.47315,-3.42243 0.33376,-0.73837 0.60685,-1.41808 0.60685,-1.51053 0,-0.0924 0.36,-0.9551 0.8,-1.91706 0.44,-0.96192 0.8,-1.83177 0.8,-1.93296 0,-0.58678 3.67958,-8.15833 4.87213,-10.02553 1.49987,-2.34832 4.82019,-5.64685 7.04406,-6.99776 1.02723,-0.62403 3.12234,-1.57687 4.65575,-2.11747 2.66188,-0.9384 3.027,-0.9841 8.06806,-1.00957 4.97782,-0.0253 5.43136,0.0246 7.92461,0.86973 3.42646,1.1614 6.06169,2.75123 8.43712,5.09004 2.11993,2.0873 4.89827,6.19264 6.01878,8.89354 0.4016,0.968 1.07427,2.52026 1.49482,3.44947 0.42057,0.92922 0.76467,1.76512 0.76467,1.85757 0,0.0925 0.27309,0.77216 0.60685,1.51053 0.33376,0.73833 0.9967,2.27843 1.47315,3.42243 0.47645,1.144 1.13939,2.6841 1.47315,3.42243 0.33376,0.73837 0.60685,1.41875 0.60685,1.512 0,0.0933 0.432,1.11277 0.96,2.26557 0.528,1.1528 0.96,2.17366 0.96,2.26851 0,0.0949 0.36,0.95955 0.8,1.92147 0.44,0.96196 0.8,1.82461 0.8,1.91706 0,0.0924 0.27162,0.77216 0.60355,1.51053 1.14659,2.55024 2.25469,5.13705 3.86496,9.02243 0.14589,0.352 0.64016,1.47194 1.09837,2.48874 0.45821,1.01683 0.83312,1.96188 0.83312,2.10012 0,0.13824 0.36,0.9976 0.8,1.90967 0.44,0.91209 0.8,1.72742 0.8,1.8119 0,0.0845 0.432,1.09677 0.96,2.24957 0.528,1.1528 0.96,2.17232 0.96,2.26557 0,0.0932 0.27181,0.77363 0.60406,1.512 0.33223,0.73833 0.92519,2.13443 1.3177,3.10243 0.39251,0.968 1.0567,2.51994 1.47597,3.44874 0.41923,0.92883 0.76227,1.80329 0.76227,1.94329 0,0.14 0.432,1.14637 0.96,2.23635 0.528,1.08999 0.96,2.05943 0.96,2.15428 0,0.0948 0.27357,0.77654 0.60794,1.51491 0.33433,0.73833 1.35568,3.14243 2.2696,5.34243 2.02662,4.87846 3.372,8.03894 4.18723,9.83651 0.3384,0.74608 0.61523,1.43799 0.61523,1.53757 0,0.0995 0.27402,0.78512 0.60893,1.52349 0.54035,1.1912 3.63177,8.51139 5.63469,13.34243 0.40131,0.968 1.76979,4.208 3.04105,7.2 1.27127,2.992 2.65427,6.268 3.07338,7.28 0.41907,1.012 1.10499,2.668 1.52429,3.68 0.41929,1.012 1.2256,2.92 1.7918,4.24 0.56624,1.32 1.75591,4.128 2.64372,6.24 3.00976,7.15994 4.44483,10.5288 5.06438,11.8888 0.33978,0.74586 0.61776,1.43238 0.61776,1.52563 0,0.0933 0.432,1.11277 0.96,2.26557 0.528,1.1528 0.9649,2.20042 0.97085,2.328 0.006,0.12762 0.26147,0.76112 0.56777,1.40781 l 0.55693,1.17577 85.39728,-204.37577 c 46.96851,-112.4067 86.17107,-206.02123 87.11683,-208.03231 4.73076,-10.05958 10.75117,-16.08836 19.00916,-19.0356 5.79731,-2.06905 9.20614,-2.59053 16.78118,-2.56721 6.29126,0.0194 6.9224,0.0763 9.89254,0.89262 4.28023,1.17634 7.50685,2.56045 10.23469,4.39036 2.67597,1.79508 8.18407,7.32489 10.01687,10.05633 2.88947,4.30623 4.83056,9.24871 5.688,14.48312 0.4656,2.84224 0.50256,33.34294 0.41926,346.15688 l -0.0914,343.04 -0.88125,3.2 c -3.70256,13.44474 -14.70515,24.03786 -27.76125,26.72813 -2.93574,0.60493 -4.08105,0.67293 -9.1175,0.54147 -4.82566,-0.12595 -6.26192,-0.2825 -8.85424,-0.96502 -6.35725,-1.67373 -11.6537,-4.64957 -16.47658,-9.25748 -5.11222,-4.88428 -8.66259,-10.65891 -10.57932,-17.2071 L 753.12,844.32 752.96,591.48602 752.8,338.652 686.88707,493.24602 c -36.25209,85.02668 -65.89661,154.8974 -65.8767,155.26828 0.036,0.66967 0.22102,1.144 1.8312,4.69444 0.46112,1.01683 0.83843,1.9752 0.83843,2.12976 0,0.15456 0.27453,0.83462 0.61005,1.51126 0.33552,0.67664 0.84925,1.80624 1.14163,2.51024 0.29238,0.704 0.65117,1.568 0.79734,1.92 0.14615,0.352 0.50615,1.216 0.8,1.92 0.29383,0.704 0.65364,1.568 0.79949,1.92 0.14589,0.352 0.64016,1.47194 1.09837,2.48874 0.45821,1.01683 0.83312,1.96441 0.83312,2.10579 0,0.14134 0.35939,0.96541 0.79866,1.83123 0.43926,0.86582 0.79926,1.74986 0.8,1.96451 0,0.21466 0.26153,0.86266 0.57955,1.44 0.31798,0.57735 0.77273,1.55373 1.01053,2.16973 0.23779,0.616 0.68316,1.696 0.98972,2.4 0.30656,0.704 1.30599,3.08 2.22093,5.28 0.91495,2.2 2.00938,4.76026 2.43207,5.68947 0.42272,0.92922 0.76854,1.76647 0.76854,1.86051 0,0.0941 0.36,0.95808 0.8,1.92 0.44,0.96196 0.8,1.82461 0.8,1.91706 0,0.0924 0.27357,0.77216 0.60794,1.51053 0.33433,0.73833 1.35651,3.14243 2.27145,5.34243 0.91495,2.2 2.00938,4.76026 2.43207,5.68947 0.42272,0.92922 0.76854,1.76512 0.76854,1.85757 0,0.0924 0.27357,0.77216 0.60794,1.51053 0.33433,0.73833 1.35651,3.14243 2.27145,5.34243 0.91495,2.2 2.00938,4.76026 2.43207,5.68947 0.42272,0.92922 0.76854,1.76647 0.76854,1.86051 0,0.0941 0.36,0.95808 0.8,1.92 0.44,0.96196 0.8,1.82461 0.8,1.91706 0,0.0924 0.27146,0.77216 0.6032,1.51053 0.33178,0.73833 1.41984,3.28643 2.41792,5.66243 0.99808,2.376 2.09466,4.93043 2.4368,5.67651 0.34214,0.74608 0.62208,1.43799 0.62208,1.53757 0,0.0996 0.27309,0.78512 0.60685,1.52349 0.33376,0.73833 0.9967,2.27843 1.47315,3.42243 0.47645,1.144 1.13939,2.6841 1.47315,3.42243 0.33376,0.73837 0.60685,1.41875 0.60685,1.512 0,0.0933 0.432,1.11277 0.96,2.26557 0.528,1.1528 0.96,2.17366 0.96,2.26851 0,0.0949 0.36,0.95955 0.8,1.92147 0.44,0.96196 0.8,1.82461 0.8,1.91706 0,0.0924 0.3032,0.84416 0.67376,1.67053 1.35277,3.01648 1.55184,3.47827 2.85491,6.62243 0.72944,1.76 1.60189,3.81043 1.93879,4.55651 0.33689,0.74608 0.61254,1.4393 0.61254,1.54051 0,0.10119 0.37978,1.00276 0.84397,2.00349 0.46416,1.00071 1.18416,2.64749 1.6,3.65949 1.60617,3.90906 2.35667,5.70051 4.59136,10.96 1.27126,2.992 2.63974,6.232 3.04105,7.2 1.60746,3.87718 5.04596,12.05744 5.44762,12.96 0.44032,0.98944 1.1065,2.56477 3.99194,9.44 0.92332,2.2 1.94995,4.6041 2.2814,5.34243 0.33146,0.73837 0.60266,1.41808 0.60266,1.51053 0,0.0924 0.36,0.9551 0.8,1.91706 0.44,0.96192 0.8,1.82592 0.8,1.92 0,0.094 0.34582,0.93129 0.76854,1.86051 1.44807,3.18336 4.10816,9.68912 4.61607,11.28947 0.70083,2.20835 0.69929,8.99299 -0.003,11.21731 -2.51117,7.95834 -8.11818,14.31386 -14.66618,16.62413 -5.53222,1.9519 -11.92118,1.87258 -17.51453,-0.21747 -1.7655,-0.65968 -4.54614,-2.06915 -4.88134,-2.47424 -0.088,-0.10637 -0.736,-0.61802 -1.44,-1.13706 -2.79107,-2.05773 -6.37626,-6.97296 -7.82845,-10.73267 -0.23795,-0.616 -0.69347,-1.7144 -1.01229,-2.44093 -0.31881,-0.72649 -1.24176,-2.95849 -2.051,-4.96 -0.80925,-2.00147 -1.66378,-4.07107 -1.89898,-4.59907 -0.2352,-0.528 -1.09866,-2.616 -1.91882,-4.64 -0.82012,-2.024 -1.68675,-4.112 -1.92585,-4.64 -0.23907,-0.528 -0.74064,-1.752 -1.11459,-2.72 -0.37396,-0.968 -0.96119,-2.37043 -1.30496,-3.11651 -0.34378,-0.74608 -0.62506,-1.4393 -0.62506,-1.54051 0,-0.10119 -0.33786,-0.93076 -0.75082,-1.84349 -0.41292,-0.91271 -1.01372,-2.37949 -1.3351,-3.25949 -0.32134,-0.88 -0.67994,-1.744 -0.79686,-1.92 -0.11693,-0.176 -0.54608,-1.184 -0.95373,-2.24 -0.40762,-1.056 -1.07917,-2.68026 -1.49232,-3.60947 -0.41315,-0.92922 -0.75117,-1.77146 -0.75117,-1.87165 0,-0.17408 -0.22832,-0.72186 -1.41386,-3.39216 -0.29139,-0.65629 -0.73513,-1.77533 -0.98614,-2.48672 -0.25101,-0.71139 -0.6655,-1.75843 -0.92112,-2.32672 -0.83901,-1.86538 -3.07888,-7.264 -3.07888,-7.42086 0,-0.0844 -0.34733,-0.91373 -0.77181,-1.84295 -0.73049,-1.59897 -1.08912,-2.46803 -2.74393,-6.64947 -0.38308,-0.968 -0.89604,-2.192 -1.13988,-2.72 -0.64982,-1.40698 -2.37523,-5.60899 -2.75936,-6.72 -0.18256,-0.528 -0.73158,-1.824 -1.22006,-2.88 -0.48845,-1.056 -0.99725,-2.28 -1.13062,-2.72 -0.13338,-0.44 -0.58266,-1.54678 -0.99844,-2.45949 -0.41574,-0.91273 -0.7559,-1.78569 -0.7559,-1.9399 0,-0.15421 -0.2879,-0.87632 -0.63981,-1.60467 -0.3519,-0.72836 -1.72723,-4.0314 -3.05632,-7.3401 -1.32905,-3.3087 -2.61126,-6.44784 -2.84934,-6.97584 -0.23808,-0.528 -1.10391,-2.616 -1.92407,-4.64 -0.82012,-2.024 -1.68419,-4.112 -1.92012,-4.64 -0.23594,-0.528 -1.60573,-3.84 -3.044,-7.36 -1.43824,-3.52 -2.80506,-6.832 -3.03735,-7.36 -0.23232,-0.528 -0.74275,-1.752 -1.1343,-2.72 -0.39159,-0.968 -0.98256,-2.37043 -1.31331,-3.11651 -0.33076,-0.74608 -0.60138,-1.44432 -0.60138,-1.55165 0,-0.19302 -0.24496,-0.77744 -1.56275,-3.72835 -0.37248,-0.83408 -0.67725,-1.60432 -0.67725,-1.71165 0,-0.1073 -0.216,-0.68486 -0.48,-1.28349 -0.264,-0.59859 -0.696,-1.57811 -0.96,-2.1767 -0.264,-0.59863 -0.48,-1.17101 -0.48,-1.272 0,-0.10099 -0.4113,-1.08723 -0.91398,-2.19165 -0.50272,-1.10438 -1.09792,-2.57235 -1.32269,-3.26214 -0.40733,-1.24992 -0.41005,-1.25152 -0.80618,-0.48 -0.21859,0.42579 -14.11289,32.95814 -30.87616,72.29414 -16.76329,39.336 -31.05273,72.672 -31.7543,74.08 -2.7464,5.51168 -6.67079,10.50893 -10.57792,13.4697 -2.70615,2.05068 -7.8361,4.45929 -11.64087,5.46556 -4.16963,1.10282 -12.43628,1.40586 -16.96252,0.62186 -7.23562,-1.25331 -12.56256,-4.02736 -17.89136,-9.31712 -3.58103,-3.55478 -5.4176,-6.01744 -7.756,-10.4 -0.70432,-1.32 -14.9906,-34.512 -31.7473,-73.76 -16.7567,-39.248 -30.56522,-71.46838 -30.6856,-71.60086 -0.12038,-0.13248 -0.91738,1.45152 -1.7711,3.52 -0.85373,2.06848 -1.8088,4.33686 -2.12237,5.04086 -0.3136,0.704 -1.24256,2.936 -2.06439,4.96 -0.82182,2.024 -1.76713,4.2841 -2.10073,5.02243 -0.3336,0.73837 -0.60653,1.41808 -0.60653,1.51053 0,0.0924 -0.34733,0.92835 -0.77181,1.85757 -0.42451,0.92921 -1.07251,2.44547 -1.44,3.36947 -0.36752,0.924 -0.96886,2.436 -1.33638,3.36 -0.36749,0.924 -1.01549,2.44026 -1.44,3.36947 -0.42448,0.92922 -0.77181,1.76647 -0.77181,1.86051 0,0.0941 -0.36,0.95808 -0.8,1.92 -0.44,0.96196 -0.8,1.81805 -0.8,1.90244 0,0.14614 -2.13898,5.31616 -3.0399,7.34758 -0.23415,0.528 -1.3128,3.12 -2.397,5.76 -1.08419,2.64 -2.17644,5.21811 -2.4272,5.72915 -0.25075,0.51104 -0.4559,1.06528 -0.4559,1.23165 0,0.16637 -0.216,0.79222 -0.48,1.39085 -0.42803,0.97053 -0.9209,2.13392 -1.74902,4.12835 -0.14615,0.352 -0.48464,1.144 -0.75223,1.76 -0.26758,0.616 -0.79993,1.912 -1.18301,2.88 -1.65481,4.18144 -2.01344,5.0505 -2.74393,6.64947 -0.42448,0.92922 -0.77181,1.76512 -0.77181,1.85757 0,0.0924 -0.27293,0.77216 -0.60653,1.51053 -0.3336,0.73833 -1.27875,2.99843 -2.10035,5.02243 -0.8216,2.024 -1.68842,4.112 -1.92627,4.64 -0.23789,0.528 -1.32096,3.12 -2.40685,5.76 -1.08589,2.64 -2.16842,5.232 -2.40563,5.76 -0.23719,0.528 -1.09338,2.5976 -1.90263,4.59907 -0.80924,2.00151 -1.75494,4.2616 -2.10153,5.02247 -0.34663,0.76083 -0.63021,1.45964 -0.63021,1.55289 0,0.0933 -0.41229,1.07315 -0.91622,2.17757 -0.50391,1.10438 -1.02775,2.368 -1.16407,2.808 -0.13635,0.44 -0.58803,1.54678 -1.00381,2.45949 -0.41574,0.91273 -0.7559,1.73712 -0.7559,1.832 0,0.0949 -0.432,1.11571 -0.96,2.26851 -0.528,1.1528 -0.96,2.17366 -0.96,2.26851 0,0.0949 -0.34016,0.91927 -0.7559,1.832 -0.41578,0.91271 -0.86746,2.01949 -1.00381,2.45949 -0.13632,0.44 -0.66016,1.70362 -1.16407,2.808 -0.50393,1.10442 -0.91712,2.11242 -0.9182,2.24 0,0.12762 -0.18772,0.592 -0.41472,1.032 -0.22704,0.44 -0.75213,1.664 -1.16685,2.72 -0.41475,1.056 -1.09213,2.68026 -1.50528,3.60947 -0.41315,0.92922 -0.75117,1.77146 -0.75117,1.87165 0,0.19488 -0.3881,1.10733 -1.72157,4.04762 -0.46112,1.01683 -0.83843,1.96188 -0.83843,2.10012 0,0.27492 -1.39478,3.34647 -1.98493,4.37114 -0.20272,0.352 -0.52323,0.928 -0.71225,1.28 -1.61552,3.00861 -4.7777,6.17296 -7.91882,7.92429 -5.48787,3.05977 -13.20136,3.92307 -19.54046,2.18697 -8.04478,-2.2032 -13.24374,-8.32976 -15.91222,-18.75126 -0.40228,-1.57107 -0.43608,-8.04064 -0.0487,-9.31226 0.15546,-0.51024 0.4678,-1.57574 0.69408,-2.36774 0.22627,-0.792 0.6611,-2.016 0.96627,-2.72 0.30518,-0.704 1.52148,-3.584 2.70289,-6.4 2.02477,-4.82621 2.57865,-6.15475 4.43605,-10.64 0.41909,-1.012 1.80209,-4.288 3.07336,-7.28 1.27126,-2.992 2.63974,-6.232 3.04107,-7.2 2.00292,-4.83104 5.09432,-12.15123 5.63467,-13.34243 0.33491,-0.73837 0.60894,-1.41808 0.60894,-1.51053 0,-0.0924 0.36,-0.9551 0.8,-1.91706 0.44,-0.96192 0.8,-1.82592 0.8,-1.92 0,-0.094 0.34534,-0.93129 0.76746,-1.86051 0.42211,-0.92921 1.15702,-2.62547 1.63315,-3.76947 0.47613,-1.144 1.13878,-2.6841 1.47254,-3.42243 0.33376,-0.73837 0.60685,-1.41808 0.60685,-1.51053 0,-0.0924 0.33754,-0.92835 0.75005,-1.85757 0.41254,-0.92921 0.94435,-2.19347 1.18182,-2.80947 0.23744,-0.616 0.69194,-1.59238 1.00992,-2.16973 0.31802,-0.57734 0.57882,-1.22534 0.57955,-1.44 0,-0.21465 0.36074,-1.09869 0.8,-1.96451 0.43927,-0.86582 0.79866,-1.68989 0.79866,-1.83123 0,-0.14138 0.37731,-1.08896 0.83843,-2.10579 0.46115,-1.0168 1.04688,-2.35274 1.30163,-2.96874 0.25479,-0.616 0.5826,-1.408 0.72845,-1.76 0.14589,-0.352 0.64016,-1.47194 1.09837,-2.48874 0.45821,-1.01683 0.83312,-2.03203 0.83312,-2.256 0,-0.224 0.12093,-0.54406 0.2687,-0.71126 0.14781,-0.1672 0.45853,-0.808 0.69053,-1.424 0.42883,-1.13859 1.18925,-2.92256 2.27722,-5.34243 0.33193,-0.73837 0.60355,-1.41808 0.60355,-1.51053 0,-0.0924 0.36,-0.9551 0.8,-1.91706 0.44,-0.96192 0.8,-1.82659 0.8,-1.92147 0,-0.0949 0.432,-1.11571 0.96,-2.26851 0.528,-1.1528 0.96,-2.17232 0.96,-2.26557 0,-0.0933 0.27309,-0.77363 0.60685,-1.512 0.33376,-0.73833 0.9967,-2.27843 1.47315,-3.42243 0.47645,-1.144 1.13939,-2.6841 1.47315,-3.42243 0.33376,-0.73837 0.60685,-1.41875 0.60685,-1.512 0,-0.0933 0.432,-1.11277 0.96,-2.26557 0.528,-1.1528 0.96,-2.17232 0.96,-2.26557 0,-0.0933 0.27309,-0.77363 0.60685,-1.512 0.33376,-0.73833 0.9967,-2.27843 1.47315,-3.42243 0.47645,-1.144 1.13939,-2.6841 1.47315,-3.42243 0.33376,-0.73837 0.60685,-1.41808 0.60685,-1.51053 0,-0.0924 0.36,-0.9551 0.8,-1.91706 0.44,-0.96192 0.8,-1.82659 0.8,-1.92147 0,-0.0949 0.432,-1.11571 0.96,-2.26851 0.528,-1.1528 0.96,-2.17232 0.96,-2.26557 0,-0.0933 0.27309,-0.77363 0.60685,-1.512 0.33376,-0.73833 0.9967,-2.27843 1.47315,-3.42243 0.47645,-1.144 1.13939,-2.6841 1.47315,-3.42243 0.33376,-0.73837 0.60685,-1.41875 0.60685,-1.512 0,-0.0933 0.432,-1.11277 0.96,-2.26557 0.528,-1.1528 0.96,-2.17366 0.96,-2.26851 0,-0.0949 0.36,-0.95955 0.8,-1.92147 0.44,-0.96196 0.8,-1.82461 0.8,-1.91706 0,-0.0924 0.27402,-0.77216 0.60893,-1.51053 0.56211,-1.23913 3.93222,-9.22441 5.63107,-13.34243 1.69885,-4.11802 5.06896,-12.1033 5.63107,-13.34243 0.33491,-0.73837 0.60893,-1.41808 0.60893,-1.51053 0,-0.0924 0.33962,-0.92835 0.75469,-1.85757 1.73072,-3.87459 3.08557,-7.22694 3.08925,-7.64393 0.003,-0.24506 -29.62586,-69.78548 -65.84002,-154.53424 L 247.52,340.62256 247.36,592.6313 247.2,844.64 l -0.88985,3.04 c -1.92665,6.58205 -5.4588,12.30995 -10.66018,17.2871 -4.7204,4.51687 -9.80903,7.45296 -15.84413,9.14192 -2.64975,0.74154 -3.70716,0.85373 -8.92584,0.94701 -3.256,0.0582 -6.57961,-0.0141 -7.3858,-0.16083 z M 529.5711,687.66944 c 28.87399,-69.0879 28.89152,-69.1312 28.41117,-70.16 -0.26435,-0.56618 -1.15165,-2.68544 -1.97181,-4.70944 -0.82012,-2.024 -1.68675,-4.112 -1.92585,-4.64 -0.23907,-0.528 -0.74064,-1.752 -1.11459,-2.72 -0.37396,-0.968 -0.96119,-2.37043 -1.30496,-3.11651 -0.34378,-0.74608 -0.62506,-1.43799 -0.62506,-1.53757 0,-0.0996 -0.28048,-0.79674 -0.6233,-1.54925 -0.34281,-0.75254 -0.92537,-2.14864 -1.29456,-3.10246 -0.36918,-0.95383 -0.86684,-2.16621 -1.10588,-2.69421 -0.23904,-0.528 -1.10564,-2.616 -1.9258,-4.64 -0.82012,-2.024 -1.68675,-4.112 -1.92585,-4.64 -0.23907,-0.528 -0.73789,-1.752 -1.10848,-2.72 -0.37056,-0.968 -0.81379,-2.084 -0.98496,-2.48 -0.17114,-0.396 -0.44544,-1.044 -0.60954,-1.44 -0.16409,-0.396 -0.50733,-1.224 -0.76275,-1.84 -0.25542,-0.616 -0.76915,-1.80243 -1.14163,-2.63651 -0.37248,-0.83408 -0.67725,-1.60432 -0.67725,-1.71165 0,-0.1073 -0.23069,-0.72086 -0.51264,-1.36349 -0.28192,-0.64259 -0.63222,-1.45635 -0.7784,-1.80835 -0.14621,-0.352 -0.85152,-2.04269 -1.56739,-3.75706 -0.71587,-1.71436 -1.30157,-3.18678 -1.30157,-3.27196 0,-0.0852 -0.41229,-1.05856 -0.91622,-2.16298 -0.50391,-1.10438 -1.02669,-2.368 -1.16173,-2.808 -0.13504,-0.44 -0.5024,-1.376 -0.81635,-2.08 -1.0162,-2.27878 -3.1857,-7.50931 -3.1857,-7.68054 0,-0.0915 -0.27565,-0.77687 -0.61254,-1.52295 -0.93642,-2.07369 -3.22746,-7.57094 -3.22746,-7.74409 0,-0.0844 -0.33802,-0.91373 -0.75117,-1.84295 -0.41315,-0.92921 -1.09053,-2.55347 -1.50528,-3.60947 -0.41472,-1.056 -0.93981,-2.28 -1.16685,-2.72 -0.227,-0.44 -0.41366,-0.9664 -0.41472,-1.16976 0,-0.20336 -0.27651,-0.92336 -0.61203,-1.6 -0.65181,-1.31453 -1.27651,-2.78259 -1.95325,-4.59024 -0.23059,-0.616 -0.54019,-1.2568 -0.688,-1.424 -0.14777,-0.1672 -0.2687,-0.4991 -0.2687,-0.73757 0,-0.23843 -0.27462,-1.03763 -0.61027,-1.776 -0.33565,-0.73833 -2.65034,-6.31043 -5.14371,-12.38243 -2.49341,-6.072 -4.72762,-11.472 -4.96493,-12 -0.23731,-0.528 -1.09783,-2.616 -1.91226,-4.64 -1.63702,-4.06835 -1.73961,-4.31488 -2.68198,-6.44467 -0.36131,-0.81661 -0.75127,-1.86061 -0.86659,-2.32 -0.35357,-1.40887 -0.54964,-1.18231 -1.90775,2.20467 -0.2823,0.704 -0.79209,1.89043 -1.13289,2.63651 -0.3408,0.74608 -0.61962,1.43143 -0.61962,1.52295 0,0.0915 -0.5857,1.56912 -1.30157,3.28348 -0.71587,1.71437 -1.43587,3.44106 -1.6,3.83706 -0.16413,0.396 -0.4327,1.044 -0.5968,1.44 -0.16409,0.396 -0.50733,1.224 -0.76275,1.84 -0.25542,0.616 -0.76915,1.80243 -1.14163,2.63651 -0.37248,0.83408 -0.67725,1.59799 -0.67725,1.69757 0,0.0995 -0.27162,0.78512 -0.60355,1.52349 -0.33197,0.73833 -0.90797,2.01853 -1.28,2.84486 -0.37207,0.82637 -0.67645,1.69757 -0.67645,1.936 0,0.23847 -0.12093,0.57037 -0.2687,0.73757 -0.14781,0.1672 -0.45853,0.808 -0.69053,1.424 -0.50979,1.3536 -1.49805,3.66064 -2.11146,4.92915 -0.24713,0.51104 -0.44931,1.04711 -0.44931,1.19127 0,0.14416 -0.34518,1.02201 -0.76704,1.95084 -0.42189,0.9288 -2.45366,5.79274 -4.51507,10.80874 -2.06138,5.016 -4.02023,9.7241 -4.35293,10.46243 -0.33274,0.73837 -0.60496,1.42394 -0.60496,1.52349 0,0.0996 -0.27565,0.79149 -0.61254,1.53757 -0.93642,2.07369 -3.22746,7.57094 -3.22746,7.74409 0,0.0844 -0.36,0.94048 -0.8,1.90244 -0.44,0.96192 -0.8,1.82659 -0.8,1.92147 0,0.0949 -0.432,1.11571 -0.96,2.26851 -0.528,1.1528 -0.96,2.16576 -0.96,2.25098 0,0.17427 -2.28717,5.66323 -3.22746,7.74553 -0.33689,0.74608 -0.61254,1.43799 -0.61254,1.53757 0,0.0996 -0.27139,0.78512 -0.60307,1.52349 -0.33168,0.73833 -1.78611,4.22243 -3.23207,7.74243 -1.44595,3.52 -2.81686,6.832 -3.04646,7.36 -0.22957,0.528 -0.80605,1.896 -1.28106,3.04 -0.475,1.144 -1.11449,2.656 -1.42108,3.36 -0.3066,0.704 -0.8912,2.144 -1.29917,3.2 -0.40794,1.056 -0.83738,2.064 -0.95431,2.24 -0.11692,0.176 -0.47232,1.04 -0.78976,1.92 -0.31744,0.88 -0.70224,1.7368 -0.8551,1.904 -0.15286,0.1672 -0.27792,0.48726 -0.27792,0.71126 0,0.22397 -0.37491,1.23917 -0.83312,2.256 -1.07123,2.37716 -1.10355,2.45421 -2.85571,6.80874 -0.81443,2.024 -1.67719,4.112 -1.91725,4.64 -0.24006,0.528 -0.79546,1.86154 -1.23418,2.96346 l -0.79769,2.00342 28.83504,68.95658 c 15.85926,37.92608 28.92662,68.95654 29.03862,68.95654 0.11197,0 13.2049,-31.10874 29.09539,-69.13056 z"
    fill="#222222"
  />
</svg>
