<?xml version="1.0" encoding="UTF-8"?>
<svg
   version="1.1"
   viewBox="0 0 4058.3999 982.40002"
   xmlns="http://www.w3.org/2000/svg">
  <path
    d="m 559.19999,896.0181 c -51.8701,-4.08896 -93.79222,-24.84512 -120.43395,-59.62824 l -4.56116,-5.95504 18.56122,-19.1656 18.56123,-19.1656 10.93633,11.02 c 18.62671,18.7692 36.05884,28.60656 60.16818,33.95432 25.08603,5.5644 53.85422,4.66208 75.06669,-2.35448 34.09907,-11.2792 55.01945,-36.51438 59.27662,-71.50246 0.45366,-3.72846 0.82483,-16.99146 0.82483,-29.47333 v -22.69433 l -3.55808,4.36792 c -9.02918,11.08427 -23.77259,22.36148 -38.39068,29.36496 -40.27691,19.29653 -95.33497,16.66346 -133.76685,-6.39721 -11.58242,-6.94992 -18.53781,-12.45212 -28.69064,-22.6963 -21.85108,-22.04769 -35.23278,-47.97942 -41.30352,-80.04 -2.0995,-11.08776 -2.95964,-39.47079 -1.55751,-51.39445 4.08612,-34.74826 17.62987,-64.12331 40.78212,-88.45236 20.36082,-21.39575 46.06981,-35.61488 74.98231,-41.47126 12.22951,-2.47715 38.47483,-3.0757 51.54158,-1.17545 29.43923,4.28123 51.15303,14.79422 70.56127,34.16306 l 9.4,9.38092 v -19.15158 -19.15158 h 29.2 29.2 v 149.46106 c 0,154.12341 -0.0893,158.8686 -3.28925,174.84263 -12.09007,60.35248 -61.60348,103.17016 -129.54235,112.02424 -11.64928,1.51824 -33.09368,2.14744 -43.96839,1.29016 z m 44.67053,-194.87663 c 34.78699,-5.16538 60.25977,-26.37311 71.31667,-59.37576 8.1863,-24.43447 7.05923,-57.72234 -2.72025,-80.34212 -4.98884,-11.53914 -9.88214,-18.76206 -18.86696,-27.84924 -14.08612,-14.2466 -26.78089,-20.99746 -46.79999,-24.88742 -10.19852,-1.9817 -29.52014,-2.11412 -39.9965,-0.27414 -38.86905,6.82667 -67.39982,35.0548 -75.35673,74.55738 -1.97147,9.78743 -1.97778,33.04263 -0.0116,42.79769 5.83336,28.94212 22.52002,52.14919 46.96484,65.31663 7.90331,4.25719 20.95967,8.54993 30.4,9.99509 10.23423,1.5667 24.76351,1.59234 35.07054,0.0619 z m 330.84458,66.42331 c -33.85712,-4.94182 -62.36096,-18.87811 -86.6032,-42.34259 -26.69888,-25.84228 -42.7216,-57.97368 -47.27392,-94.80119 -1.22601,-9.91791 -1.01382,-34.17752 0.38496,-44.02035 6.42216,-45.19037 30.77056,-83.33385 69.74656,-109.26287 18.74096,-12.46755 40.43248,-20.53159 64.3876,-23.93675 10.84096,-1.54102 34.75592,-1.5449 46.40192,-0.007 52.35948,6.91188 97.07748,39.04712 120.23948,86.40652 10.8618,22.20913 15.6015,43.47501 15.6015,70 0,6.19469 -0.3822,14.75887 -0.8493,19.03153 -7.9926,73.10621 -64.4434,130.29618 -137.52976,139.3305 -9.22768,1.14066 -35.58104,0.90543 -44.50584,-0.39726 z m 37.30584,-55.596 c 39.99716,-4.9044 71.98666,-33.48233 81.90366,-73.16877 6.5025,-26.02205 3.8854,-55.09821 -6.9128,-76.8 -6.8975,-13.86228 -19.9693,-28.9772 -32.1429,-37.16662 -17.96444,-12.08504 -38.84436,-17.73498 -61.26892,-16.57884 -26.37704,1.35991 -47.67912,10.50397 -64.90824,27.8623 -22.43168,22.59991 -32.50936,55.81082 -27.5172,90.68316 8.01512,55.9896 54.91712,92.02676 110.8464,85.16877 z m 564.32956,55.60076 c -20.9911,-3.06512 -40.6252,-10.70826 -58.7505,-22.87034 -37.1036,-24.89636 -60.448,-64.17968 -66.4969,-111.89919 -1.2559,-9.90737 -1.2527,-34.24233 0.01,-44.4 8.0233,-64.75667 51.6235,-117.03668 110.091,-132.00782 14.6389,-3.74842 24.1217,-4.67155 42.7279,-4.15945 11.6941,0.32185 17.7028,0.86707 23.6721,2.14801 25.1806,5.40334 43.9481,15.50552 61.8,33.2657 l 9.8,9.74964 v -19.49804 -19.49804 h 29.6 29.6 v 152 152.00001 h -29.6 -29.6 v -19.78228 -19.78228 l -2.5173,3.18228 c -7.495,9.47475 -21.5977,21.06666 -34.2827,28.17912 -11.029,6.184 -26.9149,11.29311 -41.605,13.3808 -10.3545,1.47152 -34.3412,1.46714 -44.4444,-0.008 z m 52.829,-55.69616 c 17.9621,-3.5495 30.6383,-10.24194 43.7033,-23.07337 16.7712,-16.47126 25.9034,-35.32498 29.2125,-60.3103 1.5315,-11.56238 1.1085,-31.32337 -0.9085,-42.45401 -7.5126,-41.45766 -35.6332,-70.78681 -74.4388,-77.63783 -10.7243,-1.89335 -29.1524,-1.71635 -39.4333,0.37876 -37.9151,7.72661 -64.8875,34.76016 -74.2548,74.42338 -1.5563,6.58939 -2.0778,11.41768 -2.4194,22.4 -0.6854,22.03961 2.2178,37.5372 10.1523,54.1942 9.3151,19.55485 24.0907,34.74109 42.9992,44.19416 18.9216,9.45957 42.8299,12.34264 65.3875,7.88501 z m 793.571,55.69616 c -20.9911,-3.06512 -40.6252,-10.70826 -58.7506,-22.87034 -37.1035,-24.89636 -60.4479,-64.17968 -66.4968,-111.89919 -1.256,-9.90737 -1.2528,-34.24233 0.01,-44.4 8.0233,-64.75667 51.6235,-117.03668 110.091,-132.00782 14.6389,-3.74842 24.1217,-4.67155 42.7279,-4.15945 11.6941,0.32185 17.7027,0.86707 23.6721,2.14801 25.1806,5.40334 43.9481,15.50552 61.8,33.2657 l 9.8,9.74964 v -19.49804 -19.49804 h 29.6 29.6 v 152 152.00001 h -29.6 -29.6 v -19.78228 -19.78228 l -2.5174,3.18228 c -7.4949,9.47475 -21.5976,21.06666 -34.2826,28.17912 -11.029,6.184 -26.9149,11.29311 -41.605,13.3808 -10.3545,1.47152 -34.3412,1.46714 -44.4444,-0.008 z m 52.829,-55.69616 c 17.9621,-3.5495 30.6383,-10.24194 43.7033,-23.07337 16.7712,-16.47126 25.9034,-35.32498 29.2125,-60.3103 1.5314,-11.56238 1.1085,-31.32337 -0.9085,-42.45401 -7.5126,-41.45766 -35.6333,-70.78681 -74.4388,-77.63783 -10.7243,-1.89335 -29.1525,-1.71635 -39.4333,0.37876 -37.9152,7.72661 -64.8875,34.76016 -74.2548,74.42338 -1.5563,6.58939 -2.0778,11.41768 -2.4194,22.4 -0.6854,22.03961 2.2178,37.5372 10.1523,54.1942 9.3151,19.55485 24.0907,34.74109 42.9992,44.19416 18.9215,9.45957 42.8299,12.34264 65.3875,7.88501 z m 350.7632,55.70264 c -30.1949,-4.70735 -56.2218,-18.61071 -75.166,-40.15314 l -4.3768,-4.97715 -0.2137,19.97715 -0.2137,19.97714 h -29.1863 -29.1863 v -228.80001 -228.8 h 29.2 29.2 v 97.27333 97.27334 l 3.5581,-4.36792 c 15.7743,-19.36455 42.7699,-34.93216 70.4855,-40.64708 10.2278,-2.10893 35.1957,-2.96112 46.5247,-1.58794 30.7715,3.72978 57.9693,16.78553 80.9318,38.84963 13.5743,13.04325 23.6846,27.08637 32.0541,44.5231 8.2455,17.17852 13.1915,35.19025 15.3193,55.78838 1.3567,13.13299 0.5344,37.87491 -1.6776,50.47508 -11.7099,66.70336 -59.7769,115.71372 -122.7959,125.20569 -9.9361,1.49659 -34.8303,1.49121 -44.4572,-0.01 z m 31.3301,-55.21483 c 13.2971,-2.16144 27.1589,-8.08557 38.3833,-16.40399 7.0057,-5.19198 17.8837,-16.60575 22.5793,-23.69135 15.4328,-23.28859 21.2161,-53.32118 16.0724,-83.46584 -6.3129,-36.99786 -31.6055,-67.31753 -64.6771,-77.5323 -9.624,-2.9726 -18.0221,-4.13266 -30.0677,-4.15343 -28.0133,-0.0483 -48.2039,7.70671 -66.5635,25.56639 -17.4344,16.95953 -26.9802,38.7438 -29.4799,67.27501 -2.3541,26.86895 3.8296,53.61837 17.0243,73.64433 4.3048,6.53356 14.6134,17.34199 21.3557,22.39127 20.146,15.0872 47.1646,20.95521 75.3732,16.36991 z m 278.0045,55.52778 c -31.3422,-4.02173 -62.6378,-17.87648 -85.2774,-37.75275 -6.7405,-5.91773 -16,-15.80476 -16,-17.08425 0,-0.81135 36.1784,-37.05196 36.9884,-37.05196 0.3166,0 3.5537,3.1029 7.1936,6.89533 18.1206,18.87989 39.704,29.36893 66.3865,32.26229 32.789,3.55553 59.1874,-4.8847 66.8741,-21.38134 1.6657,-3.57476 2.1957,-6.093 2.4219,-11.50668 0.4954,-11.85942 -3.0725,-19.89856 -12.0192,-27.08153 -10.0314,-8.05379 -23.1573,-13.39775 -60.0346,-24.442 -37.0033,-11.08196 -55.5244,-20.09656 -69.337,-33.74778 -15.289,-15.11034 -21.1458,-30.59294 -21.1074,-55.79829 0.025,-16.03439 2.4117,-27.10294 8.4548,-39.2 12.235,-24.49195 35.9304,-40.86811 68.9789,-47.67214 11.5585,-2.37965 40.8643,-3.00986 54.7805,-1.17803 35.0955,4.61975 62.4354,18.91246 82.0596,42.89919 l 4.6378,5.66882 -18.8281,18.82822 -18.8283,18.8282 -7.0922,-7.35711 c -20.0753,-20.82485 -48.8794,-30.22082 -80.7293,-26.33398 -24.8476,3.03232 -38.1075,14.99179 -37.0413,33.40873 0.8169,14.11211 8.6237,22.47883 28.747,30.8089 3.7813,1.56527 18.823,6.46059 33.4258,10.87849 29.4656,8.91439 35.6286,11.10625 48.4974,17.24815 24.2431,11.57055 40.583,28.12908 47.1405,47.77133 7.2055,21.58348 5.5657,50.09348 -4.0351,70.15659 -4.7356,9.89596 -9.0621,15.8335 -17.2357,23.65344 -16.1048,15.40811 -36.6446,24.55906 -62.8279,27.9914 -10.0567,1.31832 -36.8639,1.48589 -46.1933,0.28876 z M 4.5054277,751.80002 c 2.4001557,-5.83 43.3308713,-105.82001 90.9571463,-222.20001 l 86.593226,-211.6 22.02068,-0.2124 22.02068,-0.21238 90.10985,221.01239 c 49.56041,121.55682 90.34707,221.6424 90.637,222.4124 0.49681,1.3194 -1.37752,1.39917 -32.55843,1.38572 l -33.08559,-0.0143 -19.69641,-49.78572 -19.69643,-49.78573 -98.34893,-0.20313 -98.34894,-0.20314 -19.954642,49.99303 -19.95464,49.99303 -32.529244,0.0101 -32.52924578,0.0101 z M 279.99999,608.36892 c 0,-0.52738 -75.15619,-189.9939 -75.88256,-191.29767 -0.28459,-0.51083 -17.85159,42.41918 -39.03779,95.4 l -38.52036,96.32876 h 76.72035 c 42.1962,0 76.72036,-0.19399 76.72036,-0.43109 z M 1181.6,610.40001 v -152 h 29.1841 29.184 l 0.2159,16.81211 0.216,16.81211 4.2314,-5.5498 c 10.9198,-14.32204 26.8046,-25.14503 44.5686,-30.36663 9.4272,-2.77106 20.066,-4.10136 32.8,-4.10136 30.3034,0 51.3643,8.3467 71.0549,28.15999 l 6.2551,6.29394 -18.9636,19.56982 c -10.43,10.7634 -19.1056,19.56982 -19.2791,19.56982 -0.1736,0 -2.5547,-1.8959 -5.2914,-4.2131 -12.2525,-10.37418 -24.0039,-14.27688 -42.9426,-14.26152 -14.9488,0.0122 -25.7953,2.54088 -36.7809,8.57506 -14.9128,8.19142 -24.8624,20.21855 -30.3735,36.71547 -5.3561,16.03348 -5.1208,11.05114 -5.4518,115.38409 l -0.3002,94.60001 H 1210.7634 1181.6 Z m 763.2,-70.4 v -222.4 h 30.4 30.4 v 194.8 194.8 h 109.5999 109.6 v 27.6 27.60001 h -140 H 1944.8 Z M 612.79998,115.6 V 48.000001 h 9.2 9.2 v 6.109474 6.109473 l 3.81171,-3.5654 c 7.88465,-7.375174 16.16172,-10.525754 27.78829,-10.577329 13.19169,-0.05852 23.33533,4.056896 32.49609,13.184101 15.61216,15.554966 18.89046,44.03783 7.33762,63.75127 -2.95629,5.04453 -9.94847,12.3819 -14.71281,15.43917 -9.1209,5.85287 -22.42787,8.43737 -33.1209,6.43279 -6.64372,-1.24546 -15.46821,-5.61766 -19.89055,-9.855 l -3.70945,-3.55428 V 157.33714 183.2 h -9.2 -9.2 z m 58.69026,9.97235 c 8.7745,-3.28296 16.08701,-12.56657 18.14734,-23.039 3.24826,-16.510628 -5.31865,-32.594859 -19.90149,-37.364664 -6.31529,-2.065626 -16.86345,-1.374798 -22.71399,1.487601 -21.81949,10.675284 -21.73255,46.965843 0.13925,58.124003 7.02671,3.58476 16.07721,3.87942 24.32889,0.79206 z M 1122.4,182.9246 c 0,-0.15148 5.2277,-10.98033 11.6173,-24.06412 l 11.6172,-23.78873 -18.1336,-42.135876 c -9.9735,-23.174729 -18.3033,-42.765873 -18.5106,-43.535873 -0.3447,-1.280434 0.504,-1.4 9.9378,-1.4 h 10.3148 l 13.528,33.187729 13.5281,33.18773 14.1331,-32.98773 14.1331,-32.987729 10.6121,-0.22388 c 8.3754,-0.17669 10.5228,-0.0081 10.1884,0.8 -0.2331,0.563134 -13.2717,28.743881 -28.9748,62.623879 -15.703,33.88 -29.5724,63.85 -30.8208,66.6 l -2.2698,5 h -10.4502 c -5.7476,0 -10.4501,-0.12392 -10.4501,-0.2754 z M 177.2,144.28112 C 159.2684,140.47565 144.17637,125.78702 139.92249,108 c -0.57876,-2.42 -1.05229,-8 -1.05229,-12.399998 0,-15.0738 4.03931,-25.079186 14.24496,-35.284836 C 163.32972,50.10061 173.47845,46.000194 188.4,46.058955 c 18.09979,0.07128 32.25482,8.594714 39.55957,23.820773 3.88511,8.098139 5.00578,13.863938 4.68817,24.120274 L 232.39999,102 l -37.33334,0.20787 -37.33333,0.20787 0.82388,2.99213 c 2.25851,8.20236 9.07783,16.32087 16.31476,19.42298 12.26976,5.25943 27.87015,3.03793 37.07682,-5.27975 l 3.35677,-3.03264 6.14722,6.18713 6.14722,6.18714 -4.61035,4.32855 C 212.09056,143.45418 193.94986,147.8358 177.2,144.28112 Z m 37.19999,-58.65111 c 0,-3.17012 -3.34012,-10.363938 -6.45512,-13.902764 -1.79907,-2.04385 -5.20458,-4.620908 -7.77332,-5.882325 -4.08392,-2.005462 -5.42489,-2.24492 -12.57155,-2.24492 -7.30236,0 -8.45348,0.216861 -13.2,2.486774 -8.11621,3.881379 -14.18872,11.056807 -15.68384,18.532419 L 158.2,87.200002 h 28.1 c 27.38762,0 28.09999,-0.0398 28.09999,-1.569992 z m 166.8,58.65111 c -17.9316,-3.80547 -33.02362,-18.4941 -37.2775,-36.28112 -0.57876,-2.42 -1.05229,-8 -1.05229,-12.399998 0,-15.0738 4.0393,-25.079186 14.24496,-35.284836 10.21455,-10.214556 20.36329,-14.314972 35.28483,-14.256211 18.0998,0.07128 32.25482,8.594714 39.55958,23.820773 3.88511,8.098139 5.00578,13.863938 4.68816,24.120274 L 436.39999,102 l -37.33334,0.20787 -37.33334,0.20787 0.82388,2.99213 c 2.25851,8.20236 9.07783,16.32087 16.31477,19.42298 12.26975,5.25943 27.87014,3.03793 37.07681,-5.27975 l 3.35677,-3.03264 6.14723,6.18713 6.14722,6.18714 -4.61035,4.32855 c -10.89908,10.2329 -29.03979,14.61452 -45.78965,11.05984 z m 37.2,-58.65111 c 0,-3.17012 -3.34013,-10.363938 -6.45513,-13.902764 -1.79906,-2.04385 -5.20457,-4.620908 -7.77332,-5.882325 -4.08392,-2.005462 -5.42489,-2.24492 -12.57155,-2.24492 -7.30235,0 -8.45347,0.216861 -13.2,2.486774 -8.11621,3.881379 -14.18871,11.056807 -15.68384,18.532419 l -0.51616,2.580808 h 28.1 c 27.38762,0 28.1,-0.03984 28.1,-1.569992 z m 113.6,58.72193 c -16.0691,-3.4637 -30.04925,-16.34907 -35.72696,-32.92919 -1.83659,-5.36324 -2.13368,-7.54874 -2.15089,-15.822748 -0.0175,-8.42672 0.24892,-10.378456 2.18018,-15.969495 5.38953,-15.602812 17.80212,-27.426052 33.69767,-32.097703 5.9631,-1.752538 19.77224,-1.974981 26,-0.418817 18.13945,4.532608 32.21602,18.548553 36.38369,36.227007 1.52383,6.463808 1.52943,18.030596 0.0118,24.467226 -6.18819,26.24631 -32.97493,42.45425 -60.39554,36.54372 z m 21.25748,-18.48324 c 5.53402,-1.86873 9.05967,-4.25167 13.34894,-9.02238 11.29123,-12.55856 9.99588,-33.765726 -2.76671,-45.29596 -10.23603,-9.24763 -27.11789,-9.911359 -38.48203,-1.512963 -4.76389,3.520639 -9.76013,11.098901 -11.01542,16.708117 -1.52794,6.827576 -0.6381,17.601516 1.88759,22.854486 3.92395,8.16106 9.58047,13.33586 17.61002,16.11031 5.31794,1.83752 14.2298,1.9102 19.41761,0.15839 z m 207.94251,18.41242 c -17.9316,-3.80547 -33.02362,-18.4941 -37.2775,-36.28112 -0.57876,-2.42 -1.05229,-8 -1.05229,-12.399998 0,-15.0738 4.0393,-25.079186 14.24496,-35.284836 10.21455,-10.214556 20.36329,-14.314972 35.28483,-14.256211 18.0998,0.07128 32.2548,8.594714 39.5596,23.820773 3.88512,8.098139 5.00576,13.863938 4.68816,24.120274 L 816.39998,102 l -37.33334,0.20787 -37.33334,0.20787 0.82388,2.99213 c 2.25851,8.20236 9.07783,16.32087 16.31477,19.42298 12.26975,5.25943 27.87014,3.03793 37.07681,-5.27975 l 3.35677,-3.03264 6.14725,6.18713 6.1472,6.18714 -4.61032,4.32855 c -10.89911,10.2329 -29.03982,14.61452 -45.78968,11.05984 z m 37.2,-58.65111 c 0,-3.17012 -3.34013,-10.363938 -6.45513,-13.902764 -1.79906,-2.04385 -5.20457,-4.620908 -7.77332,-5.882325 -4.08392,-2.005462 -5.42489,-2.24492 -12.57155,-2.24492 -7.30235,0 -8.45347,0.216861 -13.2,2.486774 -8.11621,3.881379 -14.18871,11.056807 -15.68384,18.532419 l -0.51616,2.580808 h 28.1 c 27.38762,0 28.1,-0.03984 28.1,-1.569992 z m 67.42056,58.76084 c -15.90016,-3.4549 -30.23064,-18.07428 -34.19264,-34.88208 -1.57896,-6.69814 -1.59008,-21.341808 -0.0208,-27.540688 2.82928,-11.177201 10.8388,-22.656742 20.09472,-28.800509 16.0568,-10.657858 38.73008,-9.453114 52.4984,2.789495 l 3.8,3.378912 V 29.66799 L 907.99998,0 h 9.6 9.6 V 71.600001 143.2 h -9.6 -9.6 v -5.70947 -5.70947 l -3.89376,3.64216 c -9.36152,8.75659 -23.74824,12.12639 -38.28568,8.96763 z m 19.94008,-17.28942 c 2.33168,-0.4942 5.63928,-1.607 7.35032,-2.47286 4.58872,-2.32212 10.27928,-8.40897 12.94456,-13.84602 2.21256,-4.51337 2.34448,-5.34538 2.34448,-14.782548 0,-9.540088 -0.1144,-10.239152 -2.4868,-15.2 -2.89568,-6.055127 -7.86072,-11.280205 -13.5132,-14.220907 -5.76152,-2.997431 -17.19576,-3.483982 -23.76128,-1.01109 -11.50848,4.334629 -19.05232,16.218613 -19.0292,29.977197 0.0176,10.321308 3.1732,18.085428 9.8544,24.243988 7.59224,6.99824 16.32352,9.42613 26.29672,7.31224 z M 0,73.537337 V 3.874671 l 32.599999,0.3410599 c 37.152558,0.3886886 38.806195,0.6226577 52.719839,7.4592041 16.266832,7.992797 27.688612,21.263112 34.019292,39.525066 2.59849,7.495775 2.63474,7.797479 2.64344,22 0.0102,16.624729 -0.73512,20.357041 -6.41718,32.136029 -9.3488,19.38017 -25.820152,32.02323 -47.817692,36.70384 -4.231104,0.90028 -12.428708,1.16013 -36.6,1.16013 H 0 Z M 63.033725,124.34519 C 87.12939,119.44183 102.4,99.668018 102.4,73.370047 102.4,58.918064 97.396494,46.16319 88.029678,36.737394 75.888865,24.52014 65.357686,21.602174 33.399999,21.600669 L 19.2,21.6 V 73.600001 125.6 h 18.833725 c 13.952512,0 20.431866,-0.32521 25,-1.25481 z M 261.99999,97.856426 c -11.44,-24.958764 -21.23262,-46.386863 -21.76138,-47.617998 l -0.96138,-2.238427 10.56138,0.02286 10.56138,0.02286 13.9276,32.177141 c 7.66019,17.697432 14.14688,32.435838 14.41488,32.752028 0.26801,0.31618 6.94568,-14.17382 14.83927,-32.200004 l 14.352,-32.774881 h 9.83312 c 5.40823,4e-6 9.83313,0.313103 9.83313,0.69578 0,0.382677 -9.64949,21.712677 -21.44333,47.400001 L 294.71333,142.8 l -5.95667,0.218 -5.95667,0.21799 z m 194,-26.256425 V 0 h 9.2 9.2 V 71.600001 143.2 h -9.2 -9.2 z m 540.79999,2 V 4.0000001 L 1026.2,4.0138913 c 22.8173,0.010781 30.6538,0.2783093 35,1.1948464 11.9755,2.5254637 21.2241,9.3689333 26.1305,19.3351483 2.3579,4.789543 2.6728,6.238244 2.9431,13.538171 0.2319,6.266515 -0.025,9.171794 -1.0985,12.446317 -1.913,5.832283 -6.3201,12.291061 -10.4659,15.338249 -1.8958,1.393359 -3.4608,2.721513 -3.478,2.951456 -0.017,0.229942 1.2865,1.127735 2.8971,1.995095 4.9197,2.649403 11.8539,10.141828 14.6582,15.838132 9.294,18.878924 2.0271,41.406974 -16.4968,51.140994 -9.7536,5.12534 -12.0274,5.38262 -47.6897,5.39588 L 996.79998,143.2 Z m 65.88272,50.923969 c 8.2757,-3.79742 14.1173,-12.73896 14.1173,-21.60878 0,-7.157692 -1.9993,-12.218788 -6.6729,-16.892452 -6.5532,-6.553143 -8.3887,-6.964388 -33.1271,-7.421888 l -21,-0.388365 v 24.150995 24.151 l 21.8,-0.28798 c 18.7459,-0.24765 22.2318,-0.48616 24.8827,-1.70253 z m -5.2166,-64.15831 c 4.9256,-1.462764 9.18,-4.965119 11.5277,-9.489915 1.9893,-3.833898 2.3835,-12.715638 0.7699,-17.342279 -1.3841,-3.968734 -5.3552,-7.810105 -10.5637,-10.218873 -4.2499,-1.965385 -5.0621,-2.04637 -23.8,-2.373026 L 1016,20.603369 v 20.498316 20.498316 h 18.6548 c 14.4834,0 19.5842,-0.276008 22.8113,-1.234341 z"
    fill="#fff"
    id="text" />
  <path
    d="m 3477.417,980.81514 c -18.9431,-3.99408 -38.2046,-13.06232 -53.1876,-25.04056 -8.0634,-6.44624 -19.9541,-19.22936 -25.6847,-27.6124 -10.1852,-14.89952 -17.1718,-32.80416 -19.8165,-50.784 -1.9446,-13.21952 -1.2111,-35.456 1.5496,-46.97816 3.4666,-14.46824 6.9527,-23.33288 13.6514,-34.71408 23.1106,-39.2649 62.9814,-62.08593 108.4707,-62.08593 31.7641,0 59.4421,10.64998 78.7326,30.29485 4.1573,4.23363 4.9353,4.71416 6.4,3.95284 0.9171,-0.47668 30.1074,-17.25279 64.8674,-37.28025 113.6554,-65.48415 184.2079,-106.58478 191.2759,-111.42853 6.7763,-4.64391 11.8338,-12.75582 13.8272,-22.17828 2.7052,-12.78673 -1.5953,-26.02964 -11.4007,-35.10776 -11.8766,-10.99564 -27.252,-13.3439 -41.204,-6.293 -7.4818,3.78108 -40.4209,22.38213 -92.0984,52.00904 -64.7206,37.10457 -64.942,37.21049 -83.6,40.01793 -24.6459,3.7084 -44.9677,-0.75076 -65.6,-14.39452 -38.2459,-25.29124 -51.6197,-76.79812 -30.7086,-118.2689 6.3601,-12.61357 15.74,-23.92652 26.2093,-31.61087 6.6501,-4.88115 72.7999,-43.4671 216.4993,-126.28665 73.9327,-42.61026 85.2396,-49.0259 86.4032,-49.0259 0.5985,0 4.498,5.13 8.6657,11.4 4.1677,6.27 9.5902,13.61449 12.0501,16.32111 8.1792,8.99966 19.0046,15.86551 30.9092,19.60368 5.284,1.65922 7.5383,1.87521 19.5718,1.87521 10.8391,0 14.7368,-0.30747 19.2,-1.5146 24.2962,-6.57123 43.4393,-26.12016 49.6839,-50.73712 2.6772,-10.5538 2.6767,-23.34466 0,-33.90156 -6.4582,-25.45908 -25.6803,-44.45085 -52.1502,-51.5254 -4.2146,-1.12641 -8.2003,-1.46269 -16.7324,-1.41169 -9.6923,0.0579 -12.1486,0.35256 -18.246,2.18848 -3.8753,1.16684 -8.9153,3.0638 -11.2,4.21546 -5.5085,2.77671 -38.4277,21.62267 -132.554,75.88603 -141.3995,81.51616 -195.4448,112.42856 -214.4312,122.6487 -9.2695,4.98968 -21.5466,9.1167 -32.628,10.96817 -10.4873,1.75219 -37.5919,1.3239 -47.9653,-0.75794 -14.3986,-2.88968 -30.3133,-9.70426 -44.2133,-18.93192 -9.8606,-6.54614 -25.8072,-22.44581 -32.6672,-32.57108 -9.5752,-14.13279 -16.7077,-30.7658 -19.8473,-46.28412 -2.0474,-10.11969 -2.0463,-40.16905 0,-49.74015 9.2529,-43.23975 40.7365,-78.65513 82.9505,-93.30931 11.889,-4.12718 21.3613,-5.41228 40.4,-5.48107 22.3005,-0.0806 34.2928,2.5215 53.2,11.54331 19.7663,9.43178 38.519,25.73344 50.5189,43.9158 7.9126,11.98923 12.3031,20.14633 11.6956,21.72926 -0.2661,0.69354 -2.9433,2.89482 -5.9492,4.89174 -8.9732,5.96113 -38.7287,23.03429 -39.4104,22.61298 -0.3475,-0.21481 -2.7148,-3.91033 -5.2605,-8.21226 -6.4022,-10.81878 -11.313,-17.32243 -17.7224,-23.47079 -9.1783,-8.80432 -18.5479,-14.14181 -30.272,-17.24465 -8.609,-2.2784 -27.4569,-2.11836 -35.8332,0.30426 -39.9174,11.54499 -61.7526,53.66033 -47.7122,92.02645 13.8391,37.81599 58.8611,57.15698 93.8756,40.32794 7.4809,-3.59558 30.7191,-16.85023 149.8753,-85.48617 167.1717,-96.2936 199.8044,-114.84304 207.6589,-118.03977 14.0518,-5.71898 29.6526,-8.63163 46.256,-8.63594 30.5161,-0.008 58.0617,10.27742 82.2037,30.69424 21.6728,18.32871 37.0297,46.03006 41.2411,74.39246 2.8636,19.28577 1.0352,41.91827 -4.7941,59.34147 -14.2782,42.67596 -49.0812,73.10969 -94.7712,82.87328 -11.1595,2.3847 -34.7412,2.59529 -46.3467,0.41388 -22.0936,-4.1528 -39.3157,-12.63637 -54.6425,-26.91685 l -6.9892,-6.51208 -51.0108,29.3864 c -109.6599,63.17312 -192.2919,111.25394 -204.2573,118.85061 -7.0146,4.45341 -11.2542,9.78878 -14.3709,18.08512 -7.4321,19.7832 3.5053,42.06141 24.0607,49.00866 4.2049,1.42118 6.4959,1.68527 12.4116,1.43071 10.5065,-0.45211 7.9034,0.90445 105.5451,-55.00308 28.6,-16.37574 55.2657,-31.3701 59.2572,-33.3208 10.8975,-5.32589 20.6355,-7.56674 35.2159,-8.10366 14.1726,-0.5219 22.4003,0.45071 32.6505,3.85972 20.5609,6.83818 37.98,20.18022 49.398,37.8362 9.2144,14.24851 13.3844,27.72023 14.0493,45.38721 0.6471,17.19451 -1.4372,28.56734 -7.8626,42.90361 -5.4616,12.18594 -17.6528,27.47317 -28.1571,35.30796 -2.2831,1.70294 -11.1712,7.22326 -19.7512,12.26738 -32.7243,19.23839 -229.6577,133.04773 -267.5601,154.62509 l -15.1602,8.63048 -2.6015,-3.00944 c -1.4308,-1.6552 -4.0669,-5.47616 -5.858,-8.49104 -11.5626,-19.4628 -27.1133,-31.93009 -46.4221,-37.21752 -7.4198,-2.03184 -26.2587,-2.03888 -33.998,-0.0127 -7.3374,1.92092 -17.7224,6.78022 -23.8784,11.17304 -7.019,5.00872 -15.8202,14.58776 -20.0933,21.86928 -2.0165,3.43608 -4.788,9.66736 -6.1591,13.84737 -2.1747,6.6304 -2.5405,9.02888 -2.8673,18.8 -0.4658,13.92448 1.1429,21.708 6.9441,33.6 9.3242,19.11352 26.4937,32.53664 48.0847,37.59256 7.8078,1.82832 22.3962,1.87688 29.852,0.0993 12.0036,-2.86192 11.1505,-2.39848 120.9173,-65.68656 214.3768,-123.60303 241.5777,-139.06056 251.9411,-143.17116 22.9472,-9.10204 56.6635,-9.91417 81.8483,-1.9715 45.7429,14.42613 80.7613,56.70119 85.871,103.66521 1.1839,10.88112 0.5351,32.05937 -1.2459,40.67217 -8.8598,42.84448 -40.1571,78.28576 -82.2022,93.08648 -13.1863,4.64184 -18.1268,5.28672 -40.6124,5.3008 -20.928,0.0128 -22.0146,-0.10344 -34.8,-3.7312 -19.6314,-5.57016 -41.4207,-18.95192 -55.894,-34.3268 -6.9545,-7.38776 -18.189,-23.31136 -22.9952,-32.59304 -3.1604,-6.10336 -3.0536,-6.37176 4.5431,-11.42664 9.52,-6.33456 37.8321,-22.47456 38.5958,-22.00248 0.4,0.2472 2.7735,3.87824 5.2743,8.06896 17.0643,28.59528 34.9669,40.94152 61.676,42.53384 28.7411,1.71344 55.6346,-14.78152 68.1047,-41.77136 8.3469,-18.06592 8.0228,-40.08209 -0.8591,-58.33857 -6.1672,-12.67644 -14.116,-21.63154 -26.0456,-29.34244 -18.8416,-12.17871 -43.362,-14.49563 -63.2,-5.97173 -6.759,2.90421 -13.528,6.74954 -134.0401,76.1453 -152.9486,88.074 -211.5223,121.35512 -223.9598,127.25216 -14.4737,6.8624 -26.9054,9.13248 -49.6,9.0572 -12.3136,-0.0408 -17.6089,-0.39232 -22.983,-1.52536 z"
    fill="#0061fe"
    id="logo" />
</svg>
